<svg xmlns="http://www.w3.org/2000/svg" width="32.375" height="32.375" viewBox="0 0 32.375 32.375">
  <path id="linkedin" d="M27.632,0H4.742A4.748,4.748,0,0,0,0,4.742v22.89a4.748,4.748,0,0,0,4.742,4.742h22.89a4.748,4.748,0,0,0,4.742-4.742V4.742A4.748,4.748,0,0,0,27.632,0ZM11.445,25.672H7.651V12.393h3.794Zm0-15.176H7.651V6.7h3.794ZM24.724,25.672H20.93V18.084a1.9,1.9,0,1,0-3.794,0v7.588H13.342V12.393h3.794v.715a8.224,8.224,0,0,1,2.845-.715,4.966,4.966,0,0,1,4.742,5.039Zm0,0" fill="#fff"/>
</svg>
