<svg id="Calque_1" data-name="Calque 1" xmlns="http://www.w3.org/2000/svg" viewBox="0 0 139.25 140.81"><defs><style>.cls-1{fill:#fff;}</style></defs><rect id="Rectangle_1" data-name="Rectangle 1" class="cls-1" x="0.59" y="1.08" width="139" height="139"/><g id="Groupe_4" data-name="Groupe 4"><path id="Tracé_4" data-name="Tracé 4" d="M64.67,72.87a11.39,11.39,0,0,1-1.61,6.59,10.56,10.56,0,0,1-3.49,3.29,10.91,10.91,0,0,1-5.1,1.33,11.92,11.92,0,0,1,5.1,1.57,11.16,11.16,0,0,1,3.49,3.45,11.71,11.71,0,0,1,1.61,6.67v8.62a11.47,11.47,0,0,1-1.57,5.41,11.24,11.24,0,0,1-3.76,3.72q-2.6,1.7-7.38,1.69h-5.1q-4.77,0-7.37-1.69a11.33,11.33,0,0,1-3.76-3.72,11.62,11.62,0,0,1-1.57-5.41V95.76a12,12,0,0,1,1.57-6.66,10.73,10.73,0,0,1,3.45-3.45,11.36,11.36,0,0,1,5.1-1.57,10.71,10.71,0,0,1-5.1-1.33,10.18,10.18,0,0,1-3.45-3.3,11.58,11.58,0,0,1-1.57-6.58v-4a11.86,11.86,0,0,1,1.57-5.41,8.61,8.61,0,0,1,1.49-2,11.55,11.55,0,0,1,2.27-1.73,12.61,12.61,0,0,1,3.18-1.25,16.89,16.89,0,0,1,4.19-.47H52a16.91,16.91,0,0,1,4.2.47,12.61,12.61,0,0,1,3.18,1.25,10.11,10.11,0,0,1,2.23,1.73,11.61,11.61,0,0,1,1.53,2,11.86,11.86,0,0,1,1.57,5.41ZM54.48,89.81a4.66,4.66,0,0,0-.83-2.94,5.18,5.18,0,0,0-1.76-1.53,5.47,5.47,0,0,0-5.1,0,4.63,4.63,0,0,0-2.51,4.47v18.42a8,8,0,0,0,.63,2.9,5.2,5.2,0,0,0,1.49,2,4.47,4.47,0,0,0,3,.86,4.87,4.87,0,0,0,2.94-.78,5,5,0,0,0,1.52-1.72,6.49,6.49,0,0,0,.63-2.59Zm0-24.78a8,8,0,0,0-.63-2.82,5.46,5.46,0,0,0-1.53-2,4.33,4.33,0,0,0-2.94-.9,4.7,4.7,0,0,0-3,.82,5.53,5.53,0,0,0-1.49,1.77,6.37,6.37,0,0,0-.63,2.5v14a4.9,4.9,0,0,0,.78,3,5.17,5.17,0,0,0,1.73,1.49,6.62,6.62,0,0,0,2.59.63,6.37,6.37,0,0,0,2.5-.63,5.53,5.53,0,0,0,1.77-1.45,4.49,4.49,0,0,0,.82-2.94Zm38.18-7a16.91,16.91,0,0,1,4.2.47A12.07,12.07,0,0,1,100,59.78a10.37,10.37,0,0,1,2.23,1.72,12,12,0,0,1,1.53,2,11.86,11.86,0,0,1,1.57,5.41v35.52a11.35,11.35,0,0,1-1.57,5.41,11.24,11.24,0,0,1-3.76,3.72q-2.58,1.7-7.37,1.69h-5.1q-4.77,0-7.37-1.69a11.33,11.33,0,0,1-3.76-3.72,11.62,11.62,0,0,1-1.57-5.41H85V109a6.23,6.23,0,0,0,.62,2.51,4.85,4.85,0,0,0,1.49,1.69,5,5,0,0,0,3,.74,4.63,4.63,0,0,0,4.47-2.51,6.37,6.37,0,0,0,.63-2.5V91.45a6.61,6.61,0,0,1-3.57,2.79,13.78,13.78,0,0,1-4,.66H86.31a11.29,11.29,0,0,1-6.67-1.68,10.5,10.5,0,0,1-3.37-3.73,12.86,12.86,0,0,1-1.41-5.41V68.87a11.86,11.86,0,0,1,1.57-5.41,8.61,8.61,0,0,1,1.49-2,11.13,11.13,0,0,1,2.27-1.72,12.27,12.27,0,0,1,3.18-1.26,16.89,16.89,0,0,1,4.19-.47ZM90.07,93a4.63,4.63,0,0,0,4.47-2.51,6.45,6.45,0,0,0,.63-2.59V64.32a6.29,6.29,0,0,0-.63-2.51A4.78,4.78,0,0,0,93,60.09a5.94,5.94,0,0,0-5.92,0,5,5,0,0,0-1.49,1.72A6.24,6.24,0,0,0,85,64.24V87.92a6.61,6.61,0,0,0,.62,2.59,5,5,0,0,0,1.49,1.72A4.84,4.84,0,0,0,90.07,93Z"/><path id="Tracé_5" data-name="Tracé 5" d="M36.36,40.44v2a2.8,2.8,0,0,0,.27,1.13,2.5,2.5,0,0,0,.66.75,2,2,0,0,0,1.29.34h.47a2.08,2.08,0,0,0,1.28-.34,2.53,2.53,0,0,0,.67-.75,2.81,2.81,0,0,0,.28-1.13v-.22a3.46,3.46,0,0,0-.46-1.72A7,7,0,0,0,39.68,39a15.1,15.1,0,0,0-1.52-1.35c-.56-.43-1.09-.83-1.58-1.22s-1.07-.85-1.55-1.25a7.44,7.44,0,0,1-1.27-1.3,6,6,0,0,1-.85-1.63A7,7,0,0,1,32.59,30v-.66a5.32,5.32,0,0,1,.58-2.11,4.68,4.68,0,0,1,.55-.77,3.58,3.58,0,0,1,.82-.69,4.25,4.25,0,0,1,1.17-.48,5.81,5.81,0,0,1,1.55-.18h1.79a5.58,5.58,0,0,1,1.47.17,4,4,0,0,1,1.11.44A3.59,3.59,0,0,1,43,27a4,4,0,0,1,.55,1.9v.88H39.93v-2a2.63,2.63,0,0,0-.28-1.1,2.35,2.35,0,0,0-.67-.77,2,2,0,0,0-1.28-.36h-.44a2.06,2.06,0,0,0-1.29.36,2.57,2.57,0,0,0-.66.77,2.78,2.78,0,0,0-.27,1.1V28a3.39,3.39,0,0,0,.45,1.73,7.68,7.68,0,0,0,1.14,1.51,13.74,13.74,0,0,0,1.51,1.35l1.57,1.21c.55.42,1.07.82,1.55,1.22a7.22,7.22,0,0,1,1.28,1.31,5.42,5.42,0,0,1,.86,1.65,7,7,0,0,1,.32,2.28v.66A5,5,0,0,1,43.14,43a3.65,3.65,0,0,1-.56.79,4.19,4.19,0,0,1-.84.67,4.83,4.83,0,0,1-1.15.48,5.69,5.69,0,0,1-1.54.18H37.26a4.76,4.76,0,0,1-2.58-.59,3.82,3.82,0,0,1-1.87-3.21v-.87ZM59.49,25.3v3.54H56.36V27.52a2.2,2.2,0,0,0-.22-.88A1.88,1.88,0,0,0,55.6,26a1.63,1.63,0,0,0-1-.29h-.43V44.45h1.78v.44H48.8v-.44h1.79V25.74h-.47a1.52,1.52,0,0,0-1,.29,1.77,1.77,0,0,0-.53.62,2.62,2.62,0,0,0-.24.87v1.32h-3.1V25.29Zm15.75,0v.44H73.48V41.32a4,4,0,0,1-.55,1.9,3.91,3.91,0,0,1-1.32,1.3,4.66,4.66,0,0,1-2.58.59H67.24a4.64,4.64,0,0,1-2.58-.59,3.94,3.94,0,0,1-1.32-1.31,4,4,0,0,1-.55-1.9V25.74H61V25.3h5.34V42.91a2.24,2.24,0,0,0,.22.88,1.77,1.77,0,0,0,.52.6,1.68,1.68,0,0,0,1,.27,1.75,1.75,0,0,0,1-.26,1.61,1.61,0,0,0,.54-.59,2.2,2.2,0,0,0,.22-.88V25.74H68.12V25.3Zm8.9,2.22a2.48,2.48,0,0,0-.22-.88,1.86,1.86,0,0,0-.54-.61,1.63,1.63,0,0,0-1-.29H80.57V44.45h1.78a2.67,2.67,0,0,0,.88-.19,1.76,1.76,0,0,0,.62-.46,1.32,1.32,0,0,0,.29-.92Zm-8.9,17.37v-.44H77V25.74H75.24V25.3h8a6,6,0,0,1,1.47.16,4.67,4.67,0,0,1,1.11.44,3.51,3.51,0,0,1,1.32,1.29,4,4,0,0,1,.55,1.9v12a3.79,3.79,0,0,1-1.87,3.2,4.74,4.74,0,0,1-2.58.59ZM96.34,25.3v.44H94.55V44.45h1.79v.44H89.22v-.44H91V25.74H89.22V25.3Zm12.2,15.36a5.35,5.35,0,0,1-.55,2.22,6.56,6.56,0,0,1-.54.83,3.1,3.1,0,0,1-.78.71,4.61,4.61,0,0,1-1.11.5,5.65,5.65,0,0,1-1.47.19H102.3a5.59,5.59,0,0,1-1.47-.19,4.44,4.44,0,0,1-1.11-.5,3,3,0,0,1-.8-.71,4,4,0,0,1-.52-.83,5.2,5.2,0,0,1-.55-2.22V29.53a5.43,5.43,0,0,1,.55-2.23,3.49,3.49,0,0,1,.52-.81,3.9,3.9,0,0,1,1.91-1.22,4.87,4.87,0,0,1,1.47-.19h1.79a4.91,4.91,0,0,1,1.47.19,3.85,3.85,0,0,1,1.11.51,3.1,3.1,0,0,1,.78.71,4.76,4.76,0,0,1,.54.81,5.43,5.43,0,0,1,.55,2.23ZM105,27.25a2.23,2.23,0,0,0-.22-.85,1.66,1.66,0,0,0-1.57-.88,1.65,1.65,0,0,0-1,.28,1.71,1.71,0,0,0-.53.6,2.38,2.38,0,0,0-.22.88V42.91a2.48,2.48,0,0,0,.22.88,1.8,1.8,0,0,0,.53.6,1.65,1.65,0,0,0,1,.27,1.78,1.78,0,0,0,1-.26,1.61,1.61,0,0,0,.54-.59,2.38,2.38,0,0,0,.22-.88Z"/></g></svg>