<svg xmlns="http://www.w3.org/2000/svg" width="32.375" height="32.375" viewBox="0 0 32.375 32.375">
  <path id="skype" d="M30.478,16.187A14.351,14.351,0,0,0,16.187,1.9c-.306,0-.672.01-.973.029A9.512,9.512,0,0,0,1.926,15.278c-.019.3-.029.6-.029.91a14.351,14.351,0,0,0,14.29,14.29c.306,0,.609-.01.91-.029A9.533,9.533,0,0,0,32.375,22.89,9.689,9.689,0,0,0,30.449,17.1C30.468,16.8,30.478,16.493,30.478,16.187Zm-14.29,9.548a9.44,9.44,0,0,1-5.14-1.43C9.838,23.5,8.772,22.395,9.4,21.084a1.97,1.97,0,0,1,3.176-.418A5.264,5.264,0,0,0,16.3,21.914c1.409,0,3.678-.741,3.678-1.869s-2.262-1.96-3.794-1.96c-4.693,0-7.651-2.843-7.651-5.691,0-2.765,2.68-5.578,7.646-5.579a9.4,9.4,0,0,1,5.081,1.318c1.211.806,2.276,1.911,1.646,3.221a1.949,1.949,0,0,1-3.177.416,5.088,5.088,0,0,0-3.661-1.246c-1.409,0-3.741.741-3.741,1.869s2.326,1.9,3.857,1.9c4.693,0,7.588,2.906,7.588,5.754S20.867,25.735,16.187,25.735Zm0,0" fill="#fff"/>
</svg>
