<svg xmlns="http://www.w3.org/2000/svg" width="32.375" height="26.497" viewBox="0 0 32.375 26.497">
  <path id="twitter" d="M12.078,26.5a27.779,27.779,0,0,1-4.291-.341,20.137,20.137,0,0,1-5.869-2.136L0,22.972l2.077-.683c2.27-.746,3.651-1.21,5.361-1.935a7.131,7.131,0,0,1-3.666-4.248L3.288,14.64l.4.061a7.2,7.2,0,0,1-.9-1.112A6.83,6.83,0,0,1,1.624,9.527l.091-1.28.766.3A7.165,7.165,0,0,1,1.787,6.6a7.406,7.406,0,0,1,.789-4.986L3.243.386l.893,1.072A16.433,16.433,0,0,0,14.782,7.453a6.367,6.367,0,0,1,.387-3.383,6.334,6.334,0,0,1,2.575-2.952,7.734,7.734,0,0,1,4.489-1.1,7.169,7.169,0,0,1,4.407,1.818,14.8,14.8,0,0,0,1.613-.538c.354-.133.755-.284,1.257-.457L31.359.2,30.153,3.645c.08-.007.162-.012.247-.016l1.975-.089-1.167,1.6c-.067.091-.084.117-.108.153-.094.142-.211.318-1.813,2.458a3.018,3.018,0,0,0-.564,1.965,18.588,18.588,0,0,1-1.014,7.476,13.23,13.23,0,0,1-3.551,5.261,15.686,15.686,0,0,1-7.435,3.595A22.889,22.889,0,0,1,12.078,26.5Zm0,0" transform="translate(0 -0.001)" fill="#fff"/>
</svg>
