<svg xmlns="http://www.w3.org/2000/svg" width="32.375" height="26.564" viewBox="0 0 32.375 26.564">
  <path id="vimeo" d="M0,7.022.44,8.657l.033-.022A4.636,4.636,0,0,1,2.879,7.57a2.308,2.308,0,0,1,1.9,1.137c2.763,4.1,4.9,18.357,10.071,18.357,5.1,0,17.92-15.545,17.514-22.559A3.837,3.837,0,0,0,28.2.5,7.8,7.8,0,0,0,21.12,5.592c2.431-.39,4.153.973,3.968,3.468-.214,2.834-4.968,10.157-7.181,10.157-3.782,0-5.552-12.752-6.817-16.623A2.382,2.382,0,0,0,8.7,1.027a3.921,3.921,0,0,0-2.4.89C4.624,3.24,2.92,4.6,1.266,5.974Zm0,0" transform="translate(0 -0.5)" fill="#fff"/>
</svg>
