<svg xmlns="http://www.w3.org/2000/svg" xmlns:xlink="http://www.w3.org/1999/xlink" width="275" height="200" viewBox="0 0 275 200">
  <defs>
    <linearGradient id="linear-gradient" x1="0.5" y1="1" x2="0.5" gradientUnits="objectBoundingBox">
      <stop offset="0" stop-color="gray" stop-opacity="0.251"/>
      <stop offset="0.54" stop-color="gray" stop-opacity="0.122"/>
      <stop offset="1" stop-color="gray" stop-opacity="0.102"/>
    </linearGradient>
    <linearGradient id="linear-gradient-2" x1="0.5" y1="1" x2="0.5" y2="0" xlink:href="#linear-gradient"/>
    <linearGradient id="linear-gradient-3" x1="-0.211" y1="3.614" x2="-0.211" y2="0.343" xlink:href="#linear-gradient"/>
    <linearGradient id="linear-gradient-4" x1="-0.036" y1="4.542" x2="-0.036" y2="1.284" xlink:href="#linear-gradient"/>
    <linearGradient id="linear-gradient-5" x1="-0.017" y1="4.446" x2="-0.017" y2="1.187" xlink:href="#linear-gradient"/>
    <linearGradient id="linear-gradient-6" x1="-1.04" y1="1.715" x2="-1.04" y2="0.715" xlink:href="#linear-gradient"/>
    <linearGradient id="linear-gradient-7" x1="0.551" y1="0.784" x2="0.551" y2="0.225" xlink:href="#linear-gradient"/>
    <linearGradient id="linear-gradient-8" x1="0.5" y1="1" x2="0.5" y2="0" xlink:href="#linear-gradient"/>
  </defs>
  <g id="undraw_upload_87y9" transform="translate(0 -0.002)">
    <path id="Tracé_9973" data-name="Tracé 9973" d="M220.225,66.707c-9.017-3.584-18.546-6.585-28.273-6.2-14.312.55-28.021,8.961-34.755,21.312-5.706,10.463-6.409,22.729-8.866,34.34-3.027,14.308-8.825,27.9-15.021,41.2-3.328,7.133-6.838,14.438-7.384,22.268-.759,10.869,4.556,21.7,12.888,28.938s19.407,11.044,30.51,11.877c5.912.444,12.088.033,17.34-2.657,5.555-2.846,9.6-7.991,15.181-10.795,5.169-2.609,11.215-2.965,17.017-2.626a77.7,77.7,0,0,1,22.218,4.616c8.11,2.979,15.652,7.292,23.744,10.311s17.134,4.706,25.406,2.185c7.763-2.372,13.91-8.112,19.448-13.936a244.81,244.81,0,0,0,24.792-30.67c4.995-7.315,9.643-15.034,11.853-23.561,4.221-16.3-1.589-34.693-14.48-45.827-10.674-9.222-25.008-13.226-39.037-15.655-12.791-2.215-27.582-2.353-39.357-8.126C242.218,78.185,232,71.389,220.225,66.707Z" transform="translate(-103.388 -53.159)" fill="#3c82ff"/>
    <path id="Tracé_9974" data-name="Tracé 9974" d="M771.652,136.794c-3.475.139-3.65,9.111-3.434,9.5s-.789,4.441-.789,4.441-1.577,6.14-1.394,7.281a2.126,2.126,0,0,1-.849,1.888,14.663,14.663,0,0,0-3.991,3.108l-.129.139a11.225,11.225,0,0,0-1.757,1.358c-.263.385-.973.078-.973.078a18.973,18.973,0,0,0-2.283-.117c-.18.054-.462-.277-.623-.487-.075-.1-.124-.175-.124-.175L755.245,162a1.481,1.481,0,0,0-.243-.151c.041-.2.092-.416.156-.633a5.422,5.422,0,0,0,2.212-1.986c.058-.092.112-.187.163-.282a.73.73,0,0,0,.46.129.913.913,0,0,0,.214-.019,1.731,1.731,0,0,0,.623-.314,3.334,3.334,0,0,0,1.158-1.358,2.207,2.207,0,0,0,.109-.324c-.036.061-.075.122-.114.18a1.872,1.872,0,0,0-.129-1.579,5.187,5.187,0,0,1-.608-.9c-.2-.587.182-1.192.421-1.767a2.972,2.972,0,0,0,.217-1.665,2.127,2.127,0,0,0-.9-1.4c-.956-.621-2.253-.28-3.361-.579a9.1,9.1,0,0,1-1.156-.465,8.759,8.759,0,0,0-1.769-.55,1.731,1.731,0,0,0-1.7.338,3.509,3.509,0,0,0-.277.47,1.74,1.74,0,0,1-1.088.781,4.078,4.078,0,0,1-.669.071.648.648,0,0,0,0-.277c-.282-.925.526-1.611,1.577-2.025a26.27,26.27,0,0,0,5.515-4.31,27.668,27.668,0,0,1,3.719-3.091,10.216,10.216,0,0,0,6.464-6.4c1.6-5.018-7.637,3.5-8.566,3.76a9.472,9.472,0,0,0-2.261,1.217l-5.921,3.424a21.442,21.442,0,0,0-3.193,2.2,10.721,10.721,0,0,0-2.341,3.344s-.567.925-1.394,2.263a6.163,6.163,0,0,1-1.806,1.92l.027-.049c-.066.08-2.1,2.653-2.283,3.777s-1.01,5.707-1.01,5.707a22.9,22.9,0,0,1-1.231,4.307,12.344,12.344,0,0,1-.647,2.344,11.357,11.357,0,0,0-1.051,3.5,7.589,7.589,0,0,0-.767,2.794l-1.677,4.015a9.245,9.245,0,0,0-.849,3.147c.029.562.054,1.217.071,1.752v.243h0v.243c-.09.151-.321.535-.562,1a5.208,5.208,0,0,0-.691,2.042,11.438,11.438,0,0,1-.38,3.969l-.124-.049a1.7,1.7,0,0,0-.243.808l.029.015c0,.071-.022.144-.029.221a11.432,11.432,0,0,1-.187,2.514c-.324.394-.163,9.131-.163,9.131s-.526,5.468.526,8.934l-.08,2.713a25.27,25.27,0,0,0,.08,2.92,28.5,28.5,0,0,1,.163,2.952l.606,4.329s-.81,6.69-.122,8.342a9.092,9.092,0,0,1,.73,2.874,4.469,4.469,0,0,0,1.115.431v.243l-.158,4.069v.224s-.019.107-.034.285h0v.1a.117.117,0,0,0,0,.029V242a.59.59,0,0,0,0,.066.466.466,0,0,1,0,.058v.367h0v.355a.707.707,0,0,0,.019.122.123.123,0,0,0,0,.029.619.619,0,0,0,.027.134h0a.515.515,0,0,0,.032.131.033.033,0,0,1,0,.015h0a.239.239,0,0,0,.019.068.119.119,0,0,0,0,.032.392.392,0,0,0,.024.083v.019c.024.068.049.136.078.2a.088.088,0,0,0,0,.022c0,.024.022.051.034.075l.015.034.032.066.019.037.034.061.022.036c0,.019.022.039.034.058a.446.446,0,0,1,.024.039l.036.056.027.036.039.056.029.037.044.054.029.034.051.058.027.029.083.08a.128.128,0,0,0,.027.024.671.671,0,0,0,.061.056l.039.032.054.044.046.034.054.039.051.034.054.034.056.032.056.034.058.029.061.029.061.029.061.027.066.027.066.024.068.024.073.022.114.034.095.024.075.015.078.017h.083l.08.012h1.027l.131-.012h.08l.221-.024s2.757.411,2.847-.679a.875.875,0,0,1,.012-.175V244.2a.357.357,0,0,1,0-.051v-1.385c-.017-.54-.044-1.042-.061-1.321a1.77,1.77,0,0,0-.015-.243s-.939-1.416-.786-1.947a14.01,14.01,0,0,0,.119-2.331s-.365-.864-.611-1.628c-.019-.058-.036-.117-.054-.173a8.992,8.992,0,0,0,.574-.73,9.248,9.248,0,0,0-.686-5.549.346.346,0,0,1-.148-.285.117.117,0,0,1,0-.029l.47-5.746-.285-3.344a9.207,9.207,0,0,1,.243-3.268l.888-8.656,1.261-5.035s.4-.2.73.75,1.129,5.232,1.129,5.232l1.947,7.084a14.063,14.063,0,0,0,.606,2.874,5.483,5.483,0,0,1,.285,1.927,4.979,4.979,0,0,1,.526,1.811,7.832,7.832,0,0,0,.2,2.558,34.678,34.678,0,0,1,.285,4.137,8.358,8.358,0,0,0,.08,3.582,12.615,12.615,0,0,1,.2,4.093,2.8,2.8,0,0,0,.165.229c-.019.054-.041.107-.061.156-.127.329-.226.56-.226.56a14.352,14.352,0,0,0,.122,2.331c.151.531-.789,1.947-.789,1.947s0,.088-.015.243c-.017.28-.044.779-.061,1.321V244.7a.308.308,0,0,0,0,.046v.141a.9.9,0,0,0,.012.175c.092,1.09,2.85.679,2.85.679l.221.027h1.231l.083-.015.08-.012.078-.017.078-.015.095-.024.114-.034.071-.022.068-.024a.527.527,0,0,0,.066-.024l.066-.027.063-.027.061-.027.061-.032.056-.029.058-.032.054-.034.056-.034.049-.034.054-.039a.318.318,0,0,0,.046-.034.437.437,0,0,0,.054-.041l.041-.034.061-.054.027-.027.083-.08.024-.029.053-.056.027-.036a.476.476,0,0,0,.046-.054l.027-.037.041-.056.024-.036.039-.056a.327.327,0,0,1,.024-.039c0-.019.022-.039.034-.058l.022-.036c0-.022.022-.041.032-.061a.258.258,0,0,0,.019-.036c0-.022.022-.044.032-.066l.017-.034c0-.024.022-.049.034-.075v-.022c.027-.068.054-.136.075-.2v-.019a.261.261,0,0,1,.027-.08.187.187,0,0,1,0-.034.093.093,0,0,1,.019-.068v-.012a.033.033,0,0,0,0-.015.592.592,0,0,1,.034-.129h0a.844.844,0,0,1,.027-.131v-.032a.935.935,0,0,1,.02-.119.1.1,0,0,0,0-.041v-.316h0v-.426a.59.59,0,0,1,0-.066v-.085a.117.117,0,0,1,0-.029v-.1h0c-.015-.178-.032-.285-.032-.285V241.8l-.153-3.938v-.243c.226-.127.458-.27.7-.438a7.051,7.051,0,0,1,.606-3.147c.647-.9-.324-3.268-.324-3.268l-.4-8.462.161-3.894a3.872,3.872,0,0,1-.487-1.888,6.869,6.869,0,0,0-.647-2.434s-.4-1.338.083-1.733-.526-9-.526-9a81.249,81.249,0,0,0-.219-10.026v-.061L750,193.2c-.039-.3-.08-.579-.127-.84l-.136.041a6.839,6.839,0,0,0-.243-.973l-.647-2.971s-.015-.156-.032-.382c-.022-.268-.046-.63-.051-.949a1.607,1.607,0,0,1,.044-.4l-.034-.029a.884.884,0,0,1,.034-.207l-.141-.119s-.019-.134-.034-.338a3.807,3.807,0,0,1,.175-1.686c.324-.65,3.65-3.11,3.65-3.11l1.864-3.731s1.859-2.619,3.273-3.13a53.024,53.024,0,0,0,5.819-3.441,14.514,14.514,0,0,0,1.657-1.947l.051-.078h.029v-.051l4.137-6.2c1.655-1.338,1.716-4.191,1.716-4.191l.431-6.517-.141-3.855.2-2.19S775.125,136.657,771.652,136.794Zm-23.7,16.865a5.215,5.215,0,0,0-.686,2.584v.236a5.2,5.2,0,0,0,.552,2.331,1.91,1.91,0,0,0-.4.714,3.87,3.87,0,0,1-.837-1.57,1.634,1.634,0,0,0-.647-1.061,4.457,4.457,0,0,1,.039-1.4l.022-.019s.017-.029.051-.078h0c.173-.26.754-1.139,1.356-2.139a1.913,1.913,0,0,0,.309.1l.37.092Z" transform="translate(-560.158 -107.523)" fill="url(#linear-gradient)"/>
    <path id="Tracé_9975" data-name="Tracé 9975" d="M855.328,216.5c.036-.083.066-.17.095-.258a5.38,5.38,0,0,0-.243.6C855.231,216.722,855.282,216.61,855.328,216.5Z" transform="translate(-655.741 -171.955)" fill="url(#linear-gradient-2)"/>
    <path id="Tracé_9976" data-name="Tracé 9976" d="M803.923,238.788s-.762,3.631-2.166,4.1,1.7,4.624,1.7,4.624l6.442-.353.117-1.346a6.651,6.651,0,0,1,.82-5.972C812.876,236.563,803.923,238.788,803.923,238.788Z" transform="translate(-615.027 -188.615)" fill="#f6bac2"/>
    <path id="Tracé_9977" data-name="Tracé 9977" d="M750.112,561.469c-.088,1.083-2.752.674-2.752.674-4.419.613-3.689-3.719-3.689-3.719V558.2l.153-4.04.044-1.127s4.867-2.224,4.743-1.757a2.768,2.768,0,0,0,.2,1.051c.243.757.591,1.613.591,1.613a14.552,14.552,0,0,1-.117,2.312c-.146.526.762,1.932.762,1.932s0,.088.015.243A28.374,28.374,0,0,1,750.112,561.469Z" transform="translate(-571.274 -427.238)" fill="#b77983"/>
    <path id="Tracé_9978" data-name="Tracé 9978" d="M796.664,564.158s-2.665.411-2.752-.674a27.653,27.653,0,0,1,.046-3.044,2.166,2.166,0,0,1,.012-.243s.908-1.407.762-1.932a14.58,14.58,0,0,1-.117-2.314s.095-.226.219-.552a6.731,6.731,0,0,0,.572-2.11c-.117-.47,4.743,1.755,4.743,1.755l.049,1.261.148,3.906v.221S801.086,564.774,796.664,564.158Z" transform="translate(-609.339 -428.768)" fill="#b77983"/>
    <path id="Tracé_9979" data-name="Tracé 9979" d="M799.952,137.47a9.977,9.977,0,0,1-6.245,6.344,27.58,27.58,0,0,0-3.592,3.061,25.818,25.818,0,0,1-5.33,4.276c-1.017.411-1.794,1.093-1.521,2.008.243.849-2.419,5.006-2.821,5.624h0l-.049.078-.84.879-2.85,1.443-2.322-.742-.295-2.789,1.231-2.19h0a6.042,6.042,0,0,0,1.745-1.906c.8-1.329,1.348-2.244,1.348-2.244a10.707,10.707,0,0,1,2.263-3.319,20.479,20.479,0,0,1,3.083-2.19l5.721-3.407a9.224,9.224,0,0,1,2.19-1.217C792.576,140.918,801.495,132.493,799.952,137.47Z" transform="translate(-594.382 -110.231)" fill="#f6bac2"/>
    <path id="Tracé_9980" data-name="Tracé 9980" d="M776.706,220.215l3.806-.762a.244.244,0,0,0-.068.158h0l-.049.078-.84.879-2.85,1.443-2.322-.742-.294-2.789,1.231-2.19h0a4.365,4.365,0,0,0-.029,4.161Z" transform="translate(-594.345 -172.017)" opacity="0.05"/>
    <path id="Tracé_9981" data-name="Tracé 9981" d="M859.934,266.662a.728.728,0,0,0-.027.078,1.068,1.068,0,0,1-.141.243l-1.536.75-2.344.243-1.217-2.947.81-3.229.448-.6.124-.136c.046.584.282,3.631.268,4.546-.019,1.015.73,1.1.73,1.1Z" transform="translate(-655.364 -206.131)" opacity="0.05"/>
    <path id="Tracé_9982" data-name="Tracé 9982" d="M774.2,232.815a.69.69,0,0,0-.027.078,14.237,14.237,0,0,1-1.6,1.932,49.963,49.963,0,0,1-5.622,3.407c-1.365.5-3.164,3.1-3.164,3.1l-1.8,3.706s-3.22,2.434-3.531,3.086a3.846,3.846,0,0,0-.168,1.674,1.734,1.734,0,0,0,.029.336l-.949.99-.757.788-1.066,1.11-1.735-.243-5.407-.859-1.037-.584-5.755-3.242s0-.2-.015-.511c0-.136,0-.292-.015-.465-.017-.526-.041-1.18-.068-1.738a9.383,9.383,0,0,1,.82-3.122l1.618-3.984a7.723,7.723,0,0,1,.742-2.772,11.571,11.571,0,0,1,1.015-3.473,12.377,12.377,0,0,0,.625-2.324,22.973,22.973,0,0,0,1.19-4.273s.8-4.529.973-5.661,2.142-3.667,2.2-3.745a4.435,4.435,0,0,0-.175,4.449l1.407-.243,3.809-.742c-.175.117-.058,1.4-.058,1.4a1.623,1.623,0,0,1,.623,1.054,4.043,4.043,0,0,0,.859,1.618l.02.022a1.905,1.905,0,0,1,.917-1.309l.879,1.173.294,1.4s-.08.2-.587.586.214,1.4.214,1.4a7.155,7.155,0,0,1,.314,1.932h0a2.846,2.846,0,0,1,1.657-.565,5.019,5.019,0,0,0,1-1.426.589.589,0,0,1,.84-.389,5.4,5.4,0,0,1,.956-.664c.47-.243,1.015.243,1.015.243l.058,1.8s.046.073.122.173c.153.214.428.543.6.487a17.826,17.826,0,0,1,2.2.117s.684.292.937-.078a11.545,11.545,0,0,1,1.7-1.346s.28,3.624.28,4.636.73,1.1.73,1.1Z" transform="translate(-569.728 -171.999)" fill="#d39999"/>
    <path id="Tracé_9983" data-name="Tracé 9983" d="M875.841,284.664h-.051C875.882,284.42,875.841,284.664,875.841,284.664Z" transform="translate(-671.348 -223.986)" fill="none"/>
    <circle id="Ellipse_3140" data-name="Ellipse 3140" cx="0.35" cy="0.35" r="0.35" transform="translate(188.168 58.005)" fill="#4b4442"/>
    <circle id="Ellipse_3141" data-name="Ellipse 3141" cx="0.35" cy="0.35" r="0.35" transform="translate(185.617 62.995)" fill="#4b4442"/>
    <circle id="Ellipse_3142" data-name="Ellipse 3142" cx="0.35" cy="0.35" r="0.35" transform="translate(180.595 73.679)" fill="#4b4442"/>
    <circle id="Ellipse_3143" data-name="Ellipse 3143" cx="0.35" cy="0.35" r="0.35" transform="translate(182.969 68.288)" fill="#4b4442"/>
    <path id="Tracé_9984" data-name="Tracé 9984" d="M749.5,552.331a4.7,4.7,0,0,1-4.984,1.832l.044-1.127s4.867-2.224,4.743-1.757A2.584,2.584,0,0,0,749.5,552.331Z" transform="translate(-571.949 -427.13)" opacity="0.05"/>
    <path id="Tracé_9985" data-name="Tracé 9985" d="M803.164,556.343c-3.108,1.8-4.93-.309-5.354-.905a6.73,6.73,0,0,0,.572-2.11c-.117-.47,4.743,1.755,4.743,1.755Z" transform="translate(-612.305 -428.699)" opacity="0.05"/>
    <path id="Tracé_9986" data-name="Tracé 9986" d="M754.611,395.34a7.21,7.21,0,0,0-.586,3.122c-4.02,2.889-6.128-.625-6.128-.625a12.925,12.925,0,0,0-.195-4.059,8.473,8.473,0,0,1-.078-3.553,34.263,34.263,0,0,0-.275-4.1,7.841,7.841,0,0,1-.195-2.538,5.006,5.006,0,0,0-.506-1.794,5.516,5.516,0,0,0-.275-1.913,14.078,14.078,0,0,1-.584-2.852L743.918,370s-.781-4.254-1.093-5.191-.7-.742-.7-.742L741,369.105l-.859,8.588a9.422,9.422,0,0,0-.243,3.242l.273,3.317-.453,5.7a.117.117,0,0,0,0,.029.348.348,0,0,0,.141.282,9.379,9.379,0,0,1,.655,5.5c-2.967,4.3-6.559,2.069-6.559,2.069a9.11,9.11,0,0,0-.7-2.847c-.664-1.64.117-8.274.117-8.274l-.586-4.3a28.765,28.765,0,0,0-.156-2.92,25.7,25.7,0,0,1-.078-2.889l.078-2.694c-1.015-3.436-.509-8.861-.509-8.861s-.156-8.666.158-9.058a11.51,11.51,0,0,0,.18-2.494,1.741,1.741,0,0,1,.229-.8l.039-.039c.509-.625.509-3.122.467-4.1a5.265,5.265,0,0,1,.669-2.025c.243-.472.465-.861.548-1l.034-.056a51.7,51.7,0,0,1,8.119,3.358,11.077,11.077,0,0,0,3.354,1.039,7.46,7.46,0,0,0,1.75.027,6.108,6.108,0,0,0,2.516-.818,4.424,4.424,0,0,0,1.088-.874,7.274,7.274,0,0,0,0,1.572c.015.226.032.38.032.38l.65,2.9a7.6,7.6,0,0,1,.243,1.049c.046.258.085.538.122.835a80.9,80.9,0,0,1,.212,9.946s.973,8.549.509,8.939-.08,1.718-.08,1.718a6.928,6.928,0,0,1,.625,2.419,3.9,3.9,0,0,0,.47,1.874l-.158,3.865.409,8.384S755.237,394.442,754.611,395.34Z" transform="translate(-562.493 -270.96)" fill="#8499f0"/>
    <path id="Tracé_9987" data-name="Tracé 9987" d="M806.13,488.76s2.957-1.7,3.6-.937S806.13,488.76,806.13,488.76Z" transform="translate(-618.603 -378.669)" opacity="0.05"/>
    <path id="Tracé_9988" data-name="Tracé 9988" d="M813.128,496.14s-.487.243.587.555S813.128,496.14,813.128,496.14Z" transform="translate(-623.814 -385.148)" opacity="0.05"/>
    <path id="Tracé_9989" data-name="Tracé 9989" d="M739.991,476.774a4.537,4.537,0,0,0,4.772.321A35.593,35.593,0,0,0,739.991,476.774Z" transform="translate(-568.517 -370.372)" opacity="0.05"/>
    <path id="Tracé_9990" data-name="Tracé 9990" d="M751.389,490.24a3.138,3.138,0,0,1-2.137,1.582C747.816,492.026,751.389,490.24,751.389,490.24Z" transform="translate(-575.271 -380.665)" opacity="0.05"/>
    <path id="Tracé_9991" data-name="Tracé 9991" d="M797.71,502.52s3.368,5.354,2.723,6.617S797.71,502.52,797.71,502.52Z" transform="translate(-612.225 -390.081)" opacity="0.05"/>
    <path id="Tracé_9992" data-name="Tracé 9992" d="M773.28,369.09l-.35,10.482s2.078-.088,2.434-3.541.616-6.267.616-6.267Z" transform="translate(-593.46 -288.464)" opacity="0.05"/>
    <path id="Tracé_9993" data-name="Tracé 9993" d="M772.8,368.13l-.35,10.482s2.078-.088,2.434-3.543.621-6.264.621-6.264Z" transform="translate(-593.097 -287.733)" fill="#8499f0"/>
    <path id="Tracé_9994" data-name="Tracé 9994" d="M739.8,369.054s-1.64,4.4-5.393,2.268a1.731,1.731,0,0,1,.229-.8c1.027.431,3.407,1.061,4.38-1.791Z" transform="translate(-564.294 -288.125)" opacity="0.05"/>
    <path id="Tracé_9995" data-name="Tracé 9995" d="M739.323,367.131s-1.64,4.4-5.393,2.268a1.74,1.74,0,0,1,.229-.8c1.027.433,3.407,1.061,4.38-1.789Z" transform="translate(-563.931 -286.662)" opacity="0.05"/>
    <path id="Tracé_9996" data-name="Tracé 9996" d="M739.323,368.091s-1.64,4.4-5.393,2.268a1.74,1.74,0,0,1,.229-.8c1.027.433,3.407,1.061,4.38-1.789Z" transform="translate(-563.931 -287.393)" fill="#8499f0"/>
    <path id="Tracé_9997" data-name="Tracé 9997" d="M797.574,377.052c-4.123,1.961-5.634-2.662-5.634-2.662l.973.029c.17,2.957,3.429,2.161,4.546,1.8C797.5,376.485,797.537,376.755,797.574,377.052Z" transform="translate(-607.861 -292.436)" opacity="0.05"/>
    <path id="Tracé_9998" data-name="Tracé 9998" d="M798.534,375.6c-4.12,1.959-5.634-2.665-5.634-2.665l.973.029c.17,2.957,3.429,2.163,4.546,1.8C798.458,375.028,798.5,375.308,798.534,375.6Z" transform="translate(-608.588 -291.331)" opacity="0.05"/>
    <path id="Tracé_9999" data-name="Tracé 9999" d="M798.054,376.085c-4.12,1.959-5.634-2.665-5.634-2.665l.973.029c.17,2.959,3.429,2.163,4.546,1.8C797.978,375.508,798.017,375.788,798.054,376.085Z" transform="translate(-608.224 -291.697)" fill="#8499f0"/>
    <path id="Tracé_10000" data-name="Tracé 10000" d="M739.323,368.091s-1.64,4.4-5.393,2.268a1.74,1.74,0,0,1,.229-.8c1.027.433,3.407,1.061,4.38-1.789Z" transform="translate(-563.931 -287.393)" fill="#fff" opacity="0.1"/>
    <path id="Tracé_10001" data-name="Tracé 10001" d="M798.054,376.085c-4.12,1.959-5.634-2.665-5.634-2.665l.973.029c.17,2.959,3.429,2.163,4.546,1.8C797.978,375.508,798.017,375.788,798.054,376.085Z" transform="translate(-608.224 -291.697)" fill="#fff" opacity="0.1"/>
    <path id="Tracé_10002" data-name="Tracé 10002" d="M750.144,582.135a6.914,6.914,0,0,1-.029.81c-.088,1.083-2.752.674-2.752.674-2.434.338-3.31-.83-3.6-1.947a4.457,4.457,0,0,1-.134-1.11,4.616,4.616,0,0,1,.044-.667v-.221a1.628,1.628,0,0,1,1.514.309,2.57,2.57,0,0,0,2.519.2,3.379,3.379,0,0,1,1.46.438c.229.2.606-.277.893-.73.017.292.044.82.061,1.385C750.14,581.57,750.144,581.862,750.144,582.135Z" transform="translate(-571.278 -448.769)" opacity="0.05"/>
    <path id="Tracé_10003" data-name="Tracé 10003" d="M745.871,585.079s-.73.715-2.108-.389a4.454,4.454,0,0,1-.134-1.11A12.733,12.733,0,0,0,745.871,585.079Z" transform="translate(-571.271 -451.764)" opacity="0.05"/>
    <path id="Tracé_10004" data-name="Tracé 10004" d="M767.941,587.337a.55.55,0,0,1-.791-.127,5.206,5.206,0,0,0,.779-.73C767.936,586.772,767.941,587.064,767.941,587.337Z" transform="translate(-589.08 -453.963)" opacity="0.05"/>
    <path id="Tracé_10005" data-name="Tracé 10005" d="M793.868,584.2a7.5,7.5,0,0,0,.027.81c.088,1.085,2.752.674,2.752.674,2.434.341,3.31-.827,3.6-1.947a4.673,4.673,0,0,0,.09-1.776v-.221a1.647,1.647,0,0,0-1.516.309,2.566,2.566,0,0,1-2.516.2,3.4,3.4,0,0,0-1.46.44c-.229.2-.606-.277-.891-.73-.017.292-.046.82-.063,1.385C793.871,583.633,793.866,583.925,793.868,584.2Z" transform="translate(-609.322 -450.344)" opacity="0.05"/>
    <path id="Tracé_10006" data-name="Tracé 10006" d="M811.43,587.127s.73.715,2.105-.389a4.436,4.436,0,0,0,.136-1.107A13.013,13.013,0,0,1,811.43,587.127Z" transform="translate(-622.614 -453.326)" opacity="0.05"/>
    <path id="Tracé_10007" data-name="Tracé 10007" d="M793.868,589.4a.548.548,0,0,0,.788-.127,5.149,5.149,0,0,1-.779-.73C793.87,588.83,793.866,589.122,793.868,589.4Z" transform="translate(-609.312 -455.532)" opacity="0.05"/>
    <path id="Tracé_10008" data-name="Tracé 10008" d="M772.476,285s-3.748,10.345-2.3,11.243S772.476,285,772.476,285Z" transform="translate(-591.121 -224.399)" opacity="0.05"/>
    <path id="Tracé_10009" data-name="Tracé 10009" d="M790.5,271.88s-.706,3.436-.353,3.748S790.5,271.88,790.5,271.88Z" transform="translate(-606.416 -214.354)" opacity="0.05"/>
    <path id="Tracé_10010" data-name="Tracé 10010" d="M809.6,304.77s-4.607,4.293-4.3,4.646S809.6,304.77,809.6,304.77Z" transform="translate(-617.966 -239.414)" opacity="0.05"/>
    <path id="Tracé_10011" data-name="Tracé 10011" d="M819.22,258.873c-1.745.533-5.824,1.779-5.87,1.769l.226-.93a2.846,2.846,0,0,1,1.657-.565,5.017,5.017,0,0,0,1-1.426.589.589,0,0,1,.84-.389,5.538,5.538,0,0,1,.956-.664c.47-.243,1.015.243,1.015.243l.058,1.8S819.144,258.773,819.22,258.873Z" transform="translate(-624.075 -202.716)" opacity="0.05"/>
    <path id="Tracé_10012" data-name="Tracé 10012" d="M819.22,257.933c-1.745.533-5.824,1.779-5.87,1.767l.226-.927a2.846,2.846,0,0,1,1.657-.565,5.017,5.017,0,0,0,1-1.426.589.589,0,0,1,.84-.389,5.4,5.4,0,0,1,.956-.664c.47-.243,1.015.243,1.015.243l.058,1.8S819.144,257.828,819.22,257.933Z" transform="translate(-624.075 -202)" fill="#d39999"/>
    <path id="Tracé_10013" data-name="Tracé 10013" d="M807.1,246.783a7.128,7.128,0,0,1,.311,1.932l-.679.54-1.29-3.719-.058-1.932-.024-.11.02.022a1.9,1.9,0,0,1,.917-1.307l.879,1.171.294,1.4s-.08.2-.586.587S807.1,246.783,807.1,246.783Z" transform="translate(-618.017 -191.771)" opacity="0.05"/>
    <path id="Tracé_10014" data-name="Tracé 10014" d="M807.59,246.288a7.153,7.153,0,0,1,.314,1.932l-.679.548-1.29-3.719-.058-1.932-.027-.11.019.022a1.905,1.905,0,0,1,.917-1.309l.879,1.173.294,1.4s-.08.2-.586.587S807.59,246.288,807.59,246.288Z" transform="translate(-618.388 -191.397)" fill="#d39999"/>
    <path id="Tracé_10015" data-name="Tracé 10015" d="M815.6,217.961a5.225,5.225,0,1,1-1.53-3.74A5.269,5.269,0,0,1,815.6,217.961Z" transform="translate(-617.805 -169.298)" opacity="0.05"/>
    <path id="Tracé_10016" data-name="Tracé 10016" d="M815.582,217a5.24,5.24,0,1,1-1.535-3.734A5.271,5.271,0,0,1,815.582,217Z" transform="translate(-617.79 -168.567)" fill="#f6bac2"/>
    <path id="Tracé_10017" data-name="Tracé 10017" d="M817.656,216.978a5.239,5.239,0,0,1-.767,2.738c-.078-.139-.124-.3-.2-.44-.11-.2-.363-.363-.55-.243a.562.562,0,0,0-.173.243c-.153.324-.426.647-.784.64a.776.776,0,0,1-.667-.569,2.339,2.339,0,0,1-.039-.93,2.119,2.119,0,0,0-.406-1.789,2.663,2.663,0,0,0-1.017-.455,1.334,1.334,0,0,1-.876-.647c-.1-.243-.073-.5-.161-.73a1.278,1.278,0,0,0-.947-.7,2.483,2.483,0,0,1-1.657.567,6.21,6.21,0,0,1-1.63-.258,5.271,5.271,0,0,1,9.876,2.563Z" transform="translate(-619.864 -168.535)" opacity="0.05"/>
    <path id="Tracé_10018" data-name="Tracé 10018" d="M809.362,206.436c.088.243.063.506.161.73a1.329,1.329,0,0,0,.876.647,2.678,2.678,0,0,1,1.017.453,2.126,2.126,0,0,1,.406,1.791,2.339,2.339,0,0,0,.039.93.781.781,0,0,0,.667.569.968.968,0,0,0,.784-.64.568.568,0,0,1,.173-.243c.187-.124.441.041.55.243a2.409,2.409,0,0,0,.314.591.7.7,0,0,0,.64.146,1.614,1.614,0,0,0,.6-.312A3.3,3.3,0,0,0,816.709,210a1.932,1.932,0,0,0-.071-1.7,5.113,5.113,0,0,1-.586-.891c-.2-.582.175-1.18.406-1.75a3.037,3.037,0,0,0,.207-1.652,2.122,2.122,0,0,0-.869-1.394c-.925-.616-2.176-.277-3.246-.574a8.233,8.233,0,0,1-1.117-.46,8.274,8.274,0,0,0-1.7-.545,1.659,1.659,0,0,0-1.652.333,3.7,3.7,0,0,0-.268.467,1.682,1.682,0,0,1-1.051.774c-.314.075-.642.056-.974.1a1.071,1.071,0,0,0-.81.465,1.613,1.613,0,0,0-.054.973.988.988,0,0,1-.243.917c-.124.095-.294.141-.37.275a.387.387,0,0,0,.114.46,1.1,1.1,0,0,0,.465.2,7.114,7.114,0,0,0,1.867.319,2.463,2.463,0,0,0,1.738-.64c-.041.041-.309.024-.358.022A1.422,1.422,0,0,1,809.362,206.436Z" transform="translate(-617.214 -160.359)" fill="#7e646b"/>
    <g id="Groupe_10430" data-name="Groupe 10430" transform="translate(187.131 42.594)" opacity="0.05">
      <path id="Tracé_10019" data-name="Tracé 10019" d="M816.109,223.654a1.657,1.657,0,0,1-.6.314.706.706,0,0,1-.638-.148,2.374,2.374,0,0,1-.316-.591c-.11-.2-.363-.363-.55-.243a.6.6,0,0,0-.173.243.953.953,0,0,1-.784.64.772.772,0,0,1-.664-.569,2.34,2.34,0,0,1-.041-.93,2.12,2.12,0,0,0-.4-1.789,2.678,2.678,0,0,0-1.02-.455,1.34,1.34,0,0,1-.876-.647c-.1-.243-.073-.5-.161-.73a1.272,1.272,0,0,0-.947-.7,2.526,2.526,0,0,1-1.657.569,7.218,7.218,0,0,1-1.867-.321,1.127,1.127,0,0,1-.465-.2.516.516,0,0,1-.075-.088.681.681,0,0,0-.272.212.387.387,0,0,0,.114.46,1.1,1.1,0,0,0,.465.2,7.114,7.114,0,0,0,1.867.319,2.5,2.5,0,0,0,1.655-.567,1.274,1.274,0,0,1,.949.694c.088.243.063.506.161.73a1.334,1.334,0,0,0,.876.647,2.677,2.677,0,0,1,1.017.453,2.126,2.126,0,0,1,.406,1.791,2.338,2.338,0,0,0,.039.93.781.781,0,0,0,.667.569.968.968,0,0,0,.784-.64.568.568,0,0,1,.173-.243c.187-.124.441.041.55.243a2.341,2.341,0,0,0,.316.591.7.7,0,0,0,.638.146,1.614,1.614,0,0,0,.6-.312,3.3,3.3,0,0,0,1.119-1.346,2.158,2.158,0,0,0,.1-.321A3.471,3.471,0,0,1,816.109,223.654Z" transform="translate(-804.565 -215.89)"/>
      <path id="Tracé_10020" data-name="Tracé 10020" d="M854,219.741c.051-.112.1-.224.146-.333a2.217,2.217,0,0,0,.09-.258A5.751,5.751,0,0,0,854,219.741Z" transform="translate(-841.969 -216.753)"/>
      <path id="Tracé_10021" data-name="Tracé 10021" d="M807.052,210.758a1,1,0,0,0,.221-.9,3.986,3.986,0,0,1-.046-.562.826.826,0,0,0-.134.17,1.612,1.612,0,0,0-.054.973A1.887,1.887,0,0,1,807.052,210.758Z" transform="translate(-806.401 -209.3)"/>
    </g>
    <path id="Tracé_10022" data-name="Tracé 10022" d="M757,349.511c-.453.032-1.088.066-1.852.092-.531.017-1.124.029-1.759.029-.555,0-1.141,0-1.75-.027a37.517,37.517,0,0,1-5.736-.591,12.555,12.555,0,0,1-6.327-2.748c.243-.472.465-.864.548-1,0-.136,0-.294-.015-.465,2.568,1.217,10.572,4.6,16.707,2.677a1.738,1.738,0,0,0,.029.336l.139.117A7.393,7.393,0,0,0,757,349.511Z" transform="translate(-568.23 -269.91)" opacity="0.05"/>
    <path id="Tracé_10023" data-name="Tracé 10023" d="M757,348.544c-.453.032-1.088.066-1.852.09-.531.019-1.124.029-1.759.029-.555,0-1.141,0-1.75-.027a37.512,37.512,0,0,1-5.736-.589,12.556,12.556,0,0,1-6.327-2.75c.243-.472.465-.862.548-1,0-.136,0-.292-.015-.465,2.568,1.217,10.572,4.6,16.707,2.689a1.738,1.738,0,0,0,.029.336l.139.117A7.3,7.3,0,0,0,757,348.544Z" transform="translate(-568.23 -269.171)" fill="#4b4442"/>
    <path id="Tracé_10024" data-name="Tracé 10024" d="M309.669,464.506a3.346,3.346,0,0,1-.747-2.548l10.742-87.894.891-7.3a3.371,3.371,0,0,1,3.319-2.959l31.464-.209a3.366,3.366,0,0,0,3.344-3.458l-.012-.333a3.368,3.368,0,0,1,3.366-3.482H395.1a3.366,3.366,0,0,1,3.366,3.358,3.6,3.6,0,0,1-.029.453,3.366,3.366,0,0,0,3.251,3.811l31.754.81a3.363,3.363,0,0,1,3.232,3.933L420.8,461.405l-.3,1.752a3.293,3.293,0,0,1-.487,1.256Z" transform="translate(-242.207 -281.222)" fill="#b7b6cc"/>
    <g id="Groupe_10431" data-name="Groupe 10431" transform="translate(126.575 58.179)" opacity="0.5">
      <rect id="Rectangle_1400" data-name="Rectangle 1400" width="63.962" height="19.556" transform="matrix(0.568, -0.823, 0.823, 0.568, 0, 52.624)" fill="url(#linear-gradient-3)"/>
    </g>
    <rect id="Rectangle_1401" data-name="Rectangle 1401" width="18.593" height="63.106" transform="matrix(0.823, 0.568, -0.568, 0.823, 163.204, 58.885)" fill="#f9fafb"/>
    <rect id="Rectangle_1402" data-name="Rectangle 1402" width="13.126" height="13.126" transform="matrix(0.821, 0.571, -0.571, 0.821, 164.277, 61.718)" fill="#f7b643"/>
    <rect id="Rectangle_1403" data-name="Rectangle 1403" width="13.144" height="13.144" transform="matrix(0.823, 0.568, -0.568, 0.823, 155.856, 74.413)" fill="#f7b643" opacity="0.5"/>
    <rect id="Rectangle_1404" data-name="Rectangle 1404" width="13.144" height="13.144" transform="matrix(0.823, 0.568, -0.568, 0.823, 146.859, 87.173)" fill="#f7b643" opacity="0.3"/>
    <g id="Groupe_10432" data-name="Groupe 10432" transform="translate(123.257 55.104)" opacity="0.5">
      <rect id="Rectangle_1405" data-name="Rectangle 1405" width="63.724" height="19.556" transform="matrix(0.28, -0.96, 0.96, 0.28, 0, 61.165)" fill="url(#linear-gradient-4)"/>
    </g>
    <rect id="Rectangle_1406" data-name="Rectangle 1406" width="18.593" height="62.867" transform="matrix(0.96, 0.28, -0.28, 0.96, 141.627, 55.692)" fill="#f9fafb"/>
    <rect id="Rectangle_1407" data-name="Rectangle 1407" width="13.144" height="13.144" transform="matrix(0.96, 0.28, -0.28, 0.96, 143.953, 57.852)" fill="#f97878"/>
    <rect id="Rectangle_1408" data-name="Rectangle 1408" width="13.144" height="13.144" transform="matrix(0.96, 0.28, -0.28, 0.96, 139.513, 72.742)" fill="#f97878" opacity="0.5"/>
    <rect id="Rectangle_1409" data-name="Rectangle 1409" width="13.144" height="13.144" transform="matrix(0.96, 0.28, -0.28, 0.96, 135.075, 87.629)" fill="#f97878" opacity="0.3"/>
    <g id="Groupe_10433" data-name="Groupe 10433" transform="translate(123.308 56.154)" opacity="0.5">
      <rect id="Rectangle_1410" data-name="Rectangle 1410" width="63.724" height="19.556" transform="matrix(0.08, -0.997, 0.997, 0.08, 0, 63.519)" fill="url(#linear-gradient-5)"/>
    </g>
    <rect id="Rectangle_1411" data-name="Rectangle 1411" width="18.593" height="62.867" transform="matrix(0.997, 0.08, -0.08, 0.997, 129.004, 56.633)" fill="#f9fafb"/>
    <rect id="Rectangle_1412" data-name="Rectangle 1412" width="13.144" height="13.144" transform="matrix(0.997, 0.08, -0.08, 0.997, 131.636, 58.3)" fill="#73b53b"/>
    <rect id="Rectangle_1413" data-name="Rectangle 1413" width="13.144" height="13.144" transform="matrix(0.997, 0.08, -0.08, 0.997, 130.366, 73.763)" fill="#73b53b" opacity="0.5"/>
    <rect id="Rectangle_1414" data-name="Rectangle 1414" width="13.144" height="13.144" transform="matrix(0.997, 0.08, -0.08, 0.997, 129.097, 89.232)" fill="#73b53b" opacity="0.3"/>
    <g id="Groupe_10434" data-name="Groupe 10434" transform="translate(120.018 57.82)" opacity="0.5">
      <rect id="Rectangle_1415" data-name="Rectangle 1415" width="19.556" height="63.724" transform="translate(0 0.891) rotate(-2.61)" fill="url(#linear-gradient-6)"/>
    </g>
    <rect id="Rectangle_1416" data-name="Rectangle 1416" width="18.593" height="62.867" transform="translate(120.678 59.108) rotate(-2.61)" fill="#fff"/>
    <rect id="Rectangle_1417" data-name="Rectangle 1417" width="13.144" height="13.144" transform="translate(123.449 60.442) rotate(-2.61)" fill="#6c63ff"/>
    <rect id="Rectangle_1418" data-name="Rectangle 1418" width="13.16" height="13.16" transform="translate(124.683 75.453) rotate(-2.862)" fill="#6c63ff" opacity="0.5"/>
    <rect id="Rectangle_1419" data-name="Rectangle 1419" width="13.144" height="13.144" transform="translate(124.89 91.445) rotate(-2.61)" fill="#6c63ff" opacity="0.3"/>
    <path id="Tracé_10025" data-name="Tracé 10025" d="M296.308,400.852l-16.519,6.391-24.144,9.333c-.913-1.7-2.256-4.006-3.918-6.753-5.719-9.476-15.181-24.217-23.606-37.171-9.491-14.6-17.661-26.923-17.661-26.923l5.914-1.7L264.681,330Z" transform="translate(-167.566 -259.706)" fill="#e6ecf8"/>
    <path id="Tracé_10026" data-name="Tracé 10026" d="M314.7,400.852l-16.519,6.391a124.164,124.164,0,0,1-28.069,2.58c-5.719-9.476-15.181-24.217-23.606-37.171L234.77,344.015,283.075,330Z" transform="translate(-185.976 -259.565)" opacity="0.1"/>
    <path id="Tracé_10027" data-name="Tracé 10027" d="M319.841,374.948s-25.662,15.181-63.977,11.747L225.32,312.227l14.638-2.516,50.6-8.69,28.716,72.48Z" transform="translate(-178.831 -237.518)" fill="#6c63ff"/>
    <path id="Tracé_10028" data-name="Tracé 10028" d="M364.781,373.54a121.3,121.3,0,0,1-20.068-.572c-7.612-.9-15.268-2.74-21.832-6.123a66.16,66.16,0,0,1-14.271-9.586C297.969,347.688,291.384,334,285.47,309.75l50.6-8.69Z" transform="translate(-224.382 -237.307)" opacity="0.1"/>
    <path id="Tracé_10029" data-name="Tracé 10029" d="M372.931,301.952s-18.916,3.7-38.171,1.424c-7.612-.9-15.268-2.74-21.832-6.123a66.219,66.219,0,0,1-14.271-9.586c-13.171-11.849-20.126-30.009-27.3-66.681,0,0,31.447,7.59,62.544-9.036C333.894,211.962,344.375,277.373,372.931,301.952Z" transform="translate(-213.72 -169.434)" fill="#f9fafb"/>
    <path id="Tracé_10030" data-name="Tracé 10030" d="M419.633,516.9c-7.612-.9-15.268-2.74-21.832-6.123a66.221,66.221,0,0,1-14.271-9.586c11.214-.91,12.825-7.04,12.825-7.04C404.668,507.343,419.633,516.9,419.633,516.9Z" transform="translate(-298.609 -383.917)" opacity="0.1"/>
    <path id="Tracé_10031" data-name="Tracé 10031" d="M338.2,282.768s25.572-1.446,32.712-6.958L372,279.29s-16.9,7.454-33.8,7.544Z" transform="translate(-264.275 -217.395)" fill="#6c63ff" opacity="0.3"/>
    <path id="Tracé_10032" data-name="Tracé 10032" d="M338.2,342.691s24.759-1.356,43.467-10.391l.633,1.446s-14.845,8.666-44.1,10.934Z" transform="translate(-264.285 -260.448)" fill="#6c63ff" opacity="0.3"/>
    <path id="Tracé_10033" data-name="Tracé 10033" d="M346.39,370.2s24.759-1.356,43.464-10.391l.633,1.446s-14.845,8.664-44.1,10.934Z" transform="translate(-270.488 -281.411)" fill="#6c63ff" opacity="0.3"/>
    <path id="Tracé_10034" data-name="Tracé 10034" d="M354.57,397.751s24.759-1.356,43.467-10.391l.63,1.446s-14.845,8.666-44.1,10.934Z" transform="translate(-276.684 -302.403)" fill="#6c63ff" opacity="0.3"/>
    <path id="Tracé_10035" data-name="Tracé 10035" d="M362.76,425.3s24.759-1.355,43.464-10.391l.633,1.446s-14.845,8.666-44.1,10.934Z" transform="translate(-282.886 -323.396)" fill="#6c63ff" opacity="0.3"/>
    <path id="Tracé_10036" data-name="Tracé 10036" d="M370.94,452.861s24.759-1.356,43.467-10.392l.63,1.446s-14.845,8.664-44.1,10.934Z" transform="translate(-289.082 -344.396)" fill="#6c63ff" opacity="0.3"/>
    <path id="Tracé_10037" data-name="Tracé 10037" d="M1057.779,827.2s-10.289-.621-9.077,6.59a1.753,1.753,0,0,0,.915,1.852s.017-.535,1.054-.353a4.729,4.729,0,0,0,1.12.053,2.312,2.312,0,0,0,1.365-.565h0s2.894-1.195,4.018-5.921c0,0,.832-1.032.8-1.3l-1.735.73a3.11,3.11,0,0,1,.127,2.292s-.056-2.246-.389-2.19c-.068,0-.9.433-.9.433s1.02,2.19.243,3.767c0,0,.292-2.689-.569-3.609l-1.217.713s1.193,2.254.385,4.093c0,0,.207-2.821-.642-3.921l-1.107.864s1.122,2.222.438,3.748c0,0-.09-3.285-.679-3.534a6.3,6.3,0,0,0-1.115,1.217s.767,1.611.29,2.463c0,0-.292-2.19-.531-2.19a7.228,7.228,0,0,0-1.066,2.434,5.263,5.263,0,0,1,.832-2.582,2.922,2.922,0,0,0-1.48.767s.151-1.027,1.718-1.115a6.84,6.84,0,0,1,1.01-1.168,6.356,6.356,0,0,0-2.5.29,2.8,2.8,0,0,1,2.789-.528l1.093-.891a8.983,8.983,0,0,0-2.92.029s1-.857,3.215-.243l1.19-.711a10.834,10.834,0,0,0-2.789-.243,4.272,4.272,0,0,1,3.139.049l.849-.382s-1.28-.243-1.655-.292-.4-.141-.4-.141a4.415,4.415,0,0,1,2.407.268A10.8,10.8,0,0,0,1057.779,827.2Z" transform="translate(-802.286 -637.498)" fill="#3c82ff"/>
    <ellipse id="Ellipse_3144" data-name="Ellipse 3144" cx="7.281" cy="1.231" rx="7.281" ry="1.231" transform="translate(241.124 197.539)" fill="#6c63ff" opacity="0.1"/>
    <ellipse id="Ellipse_3145" data-name="Ellipse 3145" cx="24.823" cy="2.249" rx="24.823" ry="2.249" transform="translate(172.668 191.925)" fill="#6c63ff" opacity="0.1"/>
    <path id="Tracé_10038" data-name="Tracé 10038" d="M1089.934,729.406s-5.8-.35-5.11,3.716a.99.99,0,0,0,.513,1.044s.012-.3.6-.2a2.7,2.7,0,0,0,.63.029,1.3,1.3,0,0,0,.769-.316h0s1.631-.674,2.266-3.339c0,0,.47-.582.45-.73l-.974.416a1.764,1.764,0,0,1,.071,1.295s-.032-1.268-.219-1.239c-.039,0-.509.243-.509.243a2.887,2.887,0,0,1,.141,2.125s.166-1.516-.321-2.037l-.689.4a3.046,3.046,0,0,1,.217,2.307,4.322,4.322,0,0,0-.363-2.21l-.623.487a2.974,2.974,0,0,1,.243,2.112s-.051-1.852-.382-1.991a3.887,3.887,0,0,0-.63.679s.433.91.166,1.39c0,0-.166-1.234-.3-1.239a4.069,4.069,0,0,0-.6,1.375,2.979,2.979,0,0,1,.47-1.46,1.631,1.631,0,0,0-.835.433s.085-.579.973-.628a3.883,3.883,0,0,1,.569-.66,3.586,3.586,0,0,0-1.411.163,1.585,1.585,0,0,1,1.572-.3l.618-.5a5.089,5.089,0,0,0-1.648.017,1.987,1.987,0,0,1,1.813-.131l.672-.4a6.062,6.062,0,0,0-1.574-.134,2.4,2.4,0,0,1,1.769.027l.487-.214s-.73-.144-.934-.165-.224-.08-.224-.08a2.511,2.511,0,0,1,1.358.151A5.889,5.889,0,0,0,1089.934,729.406Z" transform="translate(-829.65 -563.509)" fill="#3c82ff"/>
    <ellipse id="Ellipse_3146" data-name="Ellipse 3146" cx="4.105" cy="0.694" rx="4.105" ry="0.694" transform="translate(252.188 170.317)" fill="#6c63ff" opacity="0.1"/>
    <path id="Tracé_10039" data-name="Tracé 10039" d="M945.905,743.9s-7-.423-6.176,4.485a1.2,1.2,0,0,0,.621,1.261s0-.365.73-.243a3.2,3.2,0,0,0,.762.037,1.572,1.572,0,0,0,.93-.385h0s1.969-.813,2.735-4.03c0,0,.567-.7.543-.883l-1.195.506a2.112,2.112,0,0,1,.085,1.56s-.039-1.528-.265-1.494c-.046,0-.613.3-.613.3a3.5,3.5,0,0,1,.17,2.565s.2-1.83-.387-2.458l-.832.487a3.681,3.681,0,0,1,.26,2.786,5.275,5.275,0,0,0-.436-2.677l-.754.589a3.583,3.583,0,0,1,.3,2.55s-.058-2.237-.46-2.4a4.58,4.58,0,0,0-.759.82s.521,1.1.2,1.677c0,0-.2-1.489-.363-1.5a5.093,5.093,0,0,0-.73,1.662,3.6,3.6,0,0,1,.567-1.757,1.972,1.972,0,0,0-1.005.523s.1-.7,1.168-.759a4.491,4.491,0,0,1,.689-.793,4.314,4.314,0,0,0-1.7.195,1.909,1.909,0,0,1,1.9-.358l.745-.608a6.192,6.192,0,0,0-1.988.019,2.419,2.419,0,0,1,2.19-.156l.81-.487a7.365,7.365,0,0,0-1.9-.163,2.91,2.91,0,0,1,2.137.034l.579-.26s-.871-.17-1.127-.2-.268-.1-.268-.1a3.008,3.008,0,0,1,1.638.18A7.5,7.5,0,0,0,945.905,743.9Z" transform="translate(-719.728 -574.475)" fill="#3c82ff"/>
    <ellipse id="Ellipse_3147" data-name="Ellipse 3147" cx="4.957" cy="0.837" rx="4.957" ry="0.837" transform="translate(216.398 174.763)" fill="#6c63ff" opacity="0.1"/>
    <ellipse id="Ellipse_3148" data-name="Ellipse 3148" cx="7.281" cy="1.231" rx="7.281" ry="1.231" transform="translate(6.018 193.87)" fill="#6c63ff" opacity="0.1"/>
    <path id="Tracé_10040" data-name="Tracé 10040" d="M68.1,818.959s4.152-.127,5.405-1.017,6.388-1.947,6.7-.528,6.242,7.111,1.553,7.15-10.9-.73-12.146-1.492S68.1,818.959,68.1,818.959Z" transform="translate(-59.689 -629.58)" fill="#a8a8a8"/>
    <path id="Tracé_10041" data-name="Tracé 10041" d="M81.825,831.011c-4.69.039-10.9-.73-12.146-1.492-.949-.579-1.329-2.66-1.46-3.619H68.08s.263,3.351,1.511,4.113,7.474,1.533,12.151,1.509c1.353-.012,1.82-.487,1.8-1.217C83.348,830.733,82.832,831,81.825,831.011Z" transform="translate(-59.674 -636.525)" opacity="0.2"/>
    <rect id="Rectangle_1420" data-name="Rectangle 1420" width="41.534" height="74.327" transform="matrix(0.309, -0.951, 0.951, 0.309, 191.473, 39.501)" fill="url(#linear-gradient-7)"/>
    <rect id="Rectangle_1421" data-name="Rectangle 1421" width="40.962" height="73.3" transform="matrix(0.309, -0.951, 0.951, 0.309, 192.05, 39.389)" fill="#f6f7f9"/>
    <g id="Groupe_10435" data-name="Groupe 10435" transform="translate(204.734 14.362)" opacity="0.2">
      <circle id="Ellipse_3149" data-name="Ellipse 3149" cx="7.632" cy="7.632" r="7.632" fill="#6c63ff"/>
    </g>
    <g id="Groupe_10436" data-name="Groupe 10436" transform="translate(230.475 18.633)" opacity="0.2">
      <rect id="Rectangle_1422" data-name="Rectangle 1422" width="2.09" height="33.25" transform="matrix(0.309, -0.951, 0.951, 0.309, 0, 1.988)" fill="#6c63ff"/>
    </g>
    <g id="Groupe_10437" data-name="Groupe 10437" transform="translate(228.826 23.701)" opacity="0.2">
      <rect id="Rectangle_1423" data-name="Rectangle 1423" width="2.09" height="16.938" transform="matrix(0.309, -0.951, 0.951, 0.309, 0, 1.988)" fill="#6c63ff"/>
    </g>
    <g id="Groupe_10438" data-name="Groupe 10438" transform="translate(227.176 28.773)" opacity="0.2">
      <rect id="Rectangle_1424" data-name="Rectangle 1424" width="2.09" height="27.395" transform="matrix(0.309, -0.951, 0.951, 0.309, 0, 1.988)" fill="#6c63ff"/>
    </g>
    <g id="Groupe_10439" data-name="Groupe 10439" transform="translate(225.528 33.1)" opacity="0.2">
      <rect id="Rectangle_1425" data-name="Rectangle 1425" width="2.09" height="33.25" transform="matrix(0.309, -0.951, 0.951, 0.309, 0, 1.988)" fill="#6c63ff"/>
    </g>
    <g id="Groupe_10440" data-name="Groupe 10440" transform="translate(245.416 47.563)" opacity="0.5">
      <rect id="Rectangle_1426" data-name="Rectangle 1426" width="4.042" height="9.201" transform="matrix(0.309, -0.951, 0.951, 0.309, 0, 3.844)" fill="#6c63ff"/>
    </g>
    <path id="Tracé_10042" data-name="Tracé 10042" d="M811.592,448.3a2.228,2.228,0,0,0-.024-.243,1.239,1.239,0,0,0-.041-.243c-.032-.165-.066-.329-.1-.487-.02-.075-.039-.153-.061-.226a6.172,6.172,0,0,0-1.217-2.353c-.032-.039-.066-.075-.1-.112s-.131-.141-.2-.207-.127-.124-.19-.18-.122-.107-.18-.156c-.117-.095-.226-.175-.321-.243a1.991,1.991,0,0,0-.2-.127,1.08,1.08,0,0,0-.457-.148l-1.01-.1h0l-1.38-.136-4.933-1.915-.195.068a11.188,11.188,0,0,1-.365-1.217,1.09,1.09,0,0,0,.389-.285.888.888,0,0,0,.268-.343c.124-.287-.114-.9-.066-1.248a5.891,5.891,0,0,1,.608-1.613,7.485,7.485,0,0,0,.815-3.478,3.923,3.923,0,0,0-1.621-3.086c-.523-.348-1.139-.533-1.684-.849-.423-.243-.8-.569-1.2-.847a6.9,6.9,0,0,0-6.795-.487,33.168,33.168,0,0,0-2.864,1.864,4.835,4.835,0,0,1-3.237.891.791.791,0,0,0-.034.141l-.095-.012c-.195.531.282,1.056.73,1.419a4.929,4.929,0,0,0,2.869,1.4,3.014,3.014,0,0,1,1.248.092,1.144,1.144,0,0,1,.243.146,5.422,5.422,0,0,0,1.7,5.405l-2.519-.905s-.1.054-.268.156l-3.495-2.327s-7.006-2.541-8.953,1.416,8.437,1.915,8.437,1.915l2.222,1.217a2.022,2.022,0,0,0,.243,1.334l6.057,3.743a32,32,0,0,1-3.592.973c-.518,0-1.947.511-2.855,2.553s-4.154,12-7.009,13.662-10.382,12.769-10.382,12.769l.034.088c-.134.036-.265.073-.394.117a7.978,7.978,0,0,0-3.911,2.95,1.251,1.251,0,0,0,.876,1.974,5.464,5.464,0,0,0,5.376-2.027c.051-.066.1-.131.141-.2a1.039,1.039,0,0,0,.73.034l3.633-2.937s-2.842,2.8-1.175,5.354l-.127.178a40.617,40.617,0,0,0-6.084,13.244s-1.558,1.149-1.686,5.746a87.962,87.962,0,0,1-1.689,12s-1.037,8.812-.389,11.491c0,0,.075.107.214.27-.049.058-.1.122-.161.185a3.151,3.151,0,0,1-2.779,1.217c-1.815-.385-1.815,2.808.779,3.064a69.139,69.139,0,0,1,7.087,1.421,1.492,1.492,0,0,0,1.85-1.592,13.479,13.479,0,0,0-.779-3.514c-.027-.061-.053-.122-.08-.178.075-.073.153-.146.229-.224,0,0,0-5.619.91-7.15,0,0,2.465-11.62,2.334-14.558-.1-2.3,6.4-11.246,9.226-15.025l-.024-.144c.73-.973,1.183-1.558,1.183-1.558l2.188,13.92a19.91,19.91,0,0,0,2.336,4.724s5.58,10.6,6.23,13.918a10.468,10.468,0,0,0,1.966,4.58l-.168.161a2.841,2.841,0,0,1-2.448.879c-1.816-.385-1.816,2.808.779,3.064a69.721,69.721,0,0,1,7.084,1.424,1.494,1.494,0,0,0,1.852-1.594,11.515,11.515,0,0,0-1-3.957,2.741,2.741,0,0,0-.148-.243,1.367,1.367,0,0,0,.516-.363s-3.375-8.045-3.375-10.221c0,0-1.426-8.3-6.228-11.362,0,0,.453-10.382,1.82-16.159.034-.141.068-.282.1-.419a38.512,38.512,0,0,0,3.787-.789l.129-3.83.65,3.064,7.267-4.468s-.063-.806-.185-2.039c-.063-.618-.139-1.343-.229-2.129-.073-.628-.156-1.295-.243-1.976-.024-.17-.046-.343-.071-.513-.095-.689-.2-1.385-.311-2.066q-.066-.384-.131-.759c-.061-.333-.122-.66-.185-.973-.032-.158-.066-.316-.1-.47s-.068-.307-.1-.455-.068-.292-.1-.436c-.019-.071-.036-.141-.054-.209-.036-.139-.073-.275-.109-.406a7.3,7.3,0,0,1-.263-1.674v-.674a4.831,4.831,0,0,1,.066-.672c.015-.11.034-.221.056-.331a7.425,7.425,0,0,1,.367-1.3c.08-.212.173-.421.273-.628.243-.487.487-1.005.745-1.558.131-.275.263-.557.394-.844s.265-.579.4-.876a38.434,38.434,0,0,0,2.842-8.014c.034-.217.061-.421.073-.613A3.935,3.935,0,0,0,811.592,448.3Z" transform="translate(-584.615 -334.982)" fill="url(#linear-gradient-8)"/>
    <path id="Tracé_10043" data-name="Tracé 10043" d="M838.393,470.518l-4.281-2.894s-6.8-2.519-8.686,1.385,8.182,1.888,8.182,1.888l4.281,2.39Z" transform="translate(-633.055 -362.884)" fill="#ae6e79"/>
    <rect id="Rectangle_1427" data-name="Rectangle 1427" width="40.944" height="63.739" transform="matrix(0.541, -0.841, 0.841, 0.541, 158.706, 130.807)" fill="#f9fafb"/>
    <rect id="Rectangle_1428" data-name="Rectangle 1428" width="11.584" height="2.726" transform="matrix(0.536, -0.844, 0.844, 0.536, 166.917, 128.844)" fill="#b7b6cc"/>
    <rect id="Rectangle_1429" data-name="Rectangle 1429" width="25.441" height="2.499" transform="matrix(0.536, -0.844, 0.844, 0.536, 174.238, 130.881)" fill="#b7b6cc"/>
    <rect id="Rectangle_1430" data-name="Rectangle 1430" width="25.441" height="2.499" transform="matrix(0.536, -0.844, 0.844, 0.536, 178.732, 133.675)" fill="#b7b6cc"/>
    <rect id="Rectangle_1431" data-name="Rectangle 1431" width="25.441" height="2.499" transform="matrix(0.536, -0.844, 0.844, 0.536, 183.225, 136.474)" fill="#b7b6cc"/>
    <rect id="Rectangle_1432" data-name="Rectangle 1432" width="25.405" height="2.496" transform="matrix(0.541, -0.841, 0.841, 0.541, 187.873, 140.528)" fill="#b7b6cc"/>
    <rect id="Rectangle_1433" data-name="Rectangle 1433" width="25.441" height="2.499" transform="matrix(0.536, -0.844, 0.844, 0.536, 192.211, 142.065)" fill="#fff"/>
    <rect id="Rectangle_1434" data-name="Rectangle 1434" width="25.441" height="2.499" transform="matrix(0.536, -0.844, 0.844, 0.536, 196.706, 144.859)" fill="#fff"/>
    <rect id="Rectangle_1435" data-name="Rectangle 1435" width="6.588" height="6.588" transform="matrix(0.536, -0.844, 0.844, 0.536, 215.588, 132.787)" fill="#b7b6cc"/>
    <path id="Tracé_10044" data-name="Tracé 10044" d="M903.9,824.192a66.8,66.8,0,0,0-6.872-1.4c-2.519-.243-2.519-3.407-.754-3.023a2.726,2.726,0,0,0,2.373-.864,5.565,5.565,0,0,0,.487-.533,1.461,1.461,0,0,1,.815-.5c.944-.2,2.92-.516,4.115.134a1.778,1.778,0,0,1,.652.715,11.686,11.686,0,0,1,.973,3.894,1.46,1.46,0,0,1-1.789,1.577Z" transform="translate(-685.938 -630.257)" fill="#bebed0"/>
    <path id="Tracé_10045" data-name="Tracé 10045" d="M773.033,829.394a66.649,66.649,0,0,0-6.87-1.4c-2.519-.243-2.519-3.407-.757-3.02a3.02,3.02,0,0,0,2.694-1.19c.068-.073.129-.144.18-.209a1.46,1.46,0,0,1,.813-.487c.944-.207,2.92-.518,4.118.134a2.227,2.227,0,0,1,.864,1.151,13.623,13.623,0,0,1,.754,3.463,1.46,1.46,0,0,1-1.8,1.56Z" transform="translate(-586.838 -634.201)" fill="#bebed0"/>
    <path id="Tracé_10046" data-name="Tracé 10046" d="M786.3,824.361c-3.005,3.1-5.583-.058-5.974-.579.068-.073.129-.144.18-.209a1.46,1.46,0,0,1,.813-.487c.944-.207,2.92-.518,4.118.134A2.1,2.1,0,0,1,786.3,824.361Z" transform="translate(-599.069 -634.201)" opacity="0.1"/>
    <path id="Tracé_10047" data-name="Tracé 10047" d="M915.962,818.721c-1.3.888-5.685.669-5.685.669a4.116,4.116,0,0,1-.4-.487,5.55,5.55,0,0,0,.487-.533,1.46,1.46,0,0,1,.815-.5c.944-.2,2.92-.516,4.115.134A1.779,1.779,0,0,1,915.962,818.721Z" transform="translate(-697.175 -630.257)" opacity="0.1"/>
    <path id="Tracé_10048" data-name="Tracé 10048" d="M817.374,688.3c-.883,1.134-5.916.881-5.916.881a9.648,9.648,0,0,1-2.142-4.782c-.63-3.271-6.043-13.721-6.043-13.721a19.792,19.792,0,0,1-2.266-4.658L798.869,652.3s-10.321,13.594-10.194,16.49-2.268,14.358-2.268,14.358c-.881,1.511-.881,7.057-.881,7.057-3.271,3.407-6.04-.63-6.04-.63-.63-2.643.377-11.328.377-11.328a88.065,88.065,0,0,0,1.635-11.832c.124-4.531,1.638-5.663,1.638-5.663a40.366,40.366,0,0,1,5.911-13.059c.759-1.088,1.263-1.669,1.263-1.669l20.391,2.392a12.839,12.839,0,0,0-.876,2.7c-1.326,5.695-1.767,15.928-1.767,15.928,4.658,3.02,6.043,11.195,6.043,11.195C814.1,680.365,817.374,688.3,817.374,688.3Z" transform="translate(-598.337 -500.421)" fill="#5c5c8e"/>
    <g id="Groupe_10441" data-name="Groupe 10441" transform="translate(183.832 145.594)" opacity="0.05">
      <path id="Tracé_10049" data-name="Tracé 10049" d="M806.745,673.487l-.263-1.677S796.161,685.4,796.288,688.3s-2.266,14.358-2.266,14.358c-.883,1.511-.883,7.057-.883,7.057a4.3,4.3,0,0,1-1.969,1.263,3.461,3.461,0,0,0,3.48-1.263s0-5.539.881-7.057c0,0,2.392-11.455,2.266-14.358C797.7,686.034,804,677.21,806.745,673.487Z" transform="translate(-791.17 -665.529)"/>
      <path id="Tracé_10050" data-name="Tracé 10050" d="M848.495,678.211s-1.385-8.182-6.04-11.195c0,0,.441-10.233,1.764-15.928a12.827,12.827,0,0,1,.879-2.7L824.706,646s-.049.054-.136.161l19.016,2.232a12.842,12.842,0,0,0-.876,2.7c-1.326,5.695-1.767,15.928-1.767,15.928,4.658,3.02,6.043,11.195,6.043,11.195,0,2.139,3.273,10.07,3.273,10.07-.521.667-2.482.854-4.008.9,1.217.032,4.787.044,5.517-.9C851.768,688.281,848.495,680.35,848.495,678.211Z" transform="translate(-816.442 -646)"/>
    </g>
    <path id="Tracé_10051" data-name="Tracé 10051" d="M787.667,632.014a4.6,4.6,0,0,1-.6,1.042,5.262,5.262,0,0,1-5.213,2,1.239,1.239,0,0,1-.852-1.947,7.756,7.756,0,0,1,3.794-2.92,6.924,6.924,0,0,1,1.609-.326Z" transform="translate(-599.409 -487.07)" fill="#ae6e79"/>
    <path id="Tracé_10052" data-name="Tracé 10052" d="M880.648,482.572l-10.095-3.692s-2.9,1.511-1.762,3.65l9.829,6.169Z" transform="translate(-665.872 -372.108)" fill="#42383c"/>
    <path id="Tracé_10053" data-name="Tracé 10053" d="M880.8,482.742l-10.1-3.692s-2.9,1.509-1.762,3.65l9.817,6.167Z" transform="translate(-665.986 -372.238)" opacity="0.1"/>
    <path id="Tracé_10054" data-name="Tracé 10054" d="M902.94,468.278s-.127,5.916,2.519,7.931-7.68,3.147-7.68,3.147,1.638-6.043,0-9.189S902.94,468.278,902.94,468.278Z" transform="translate(-687.823 -363.859)" fill="#ae6e79"/>
    <path id="Tracé_10055" data-name="Tracé 10055" d="M841.074,648.342a12.842,12.842,0,0,0-.876,2.7,33.311,33.311,0,0,1-20.649-3.205c-.046-.073-.09-.146-.129-.219.759-1.088,1.263-1.669,1.263-1.669Z" transform="translate(-628.703 -499.331)" opacity="0.1"/>
    <path id="Tracé_10056" data-name="Tracé 10056" d="M800.177,632.052a4.594,4.594,0,0,1-.6,1.042c-1.166-.195-2.1-2.434-2.271-2.857a6.926,6.926,0,0,1,1.609-.326Z" transform="translate(-611.922 -487.076)" opacity="0.1"/>
    <path id="Tracé_10057" data-name="Tracé 10057" d="M829.211,490.78l-4.531,1.635-1.889,2.519s-3.894,1.258-4.4,1.258-1.888.5-2.769,2.516-4.028,11.837-6.8,13.47-10.07,12.587-10.07,12.587,1.258,3.407,2.769,2.9l3.524-2.9s-2.77,2.769-1.134,5.288c0,0,10.323,6.167,24.548,2.39l.124-3.774.63,3.02,7.057-4.4s-.63-8.126-1.767-12.26a7.476,7.476,0,0,1,.487-5.21c1.828-3.809,4.648-10.17,4.305-12.489a5.794,5.794,0,0,0-2.541-4.278,1.051,1.051,0,0,0-.443-.148l-2.3-.229Z" transform="translate(-613.091 -381.673)" fill="#42383c"/>
    <path id="Tracé_10058" data-name="Tracé 10058" d="M843.186,542.76s-2.519,11.706-5.288,13.594-10.194,7.931-10.447,8.939" transform="translate(-634.772 -420.969)" opacity="0.05"/>
    <path id="Tracé_10059" data-name="Tracé 10059" d="M838.533,541.21s-2.516,11.706-5.286,13.594-10.2,7.931-10.447,8.936" transform="translate(-631.25 -419.787)" fill="#42383c"/>
    <path id="Tracé_10060" data-name="Tracé 10060" d="M897.28,500.542s8.686-2.9,11.195-2.142" transform="translate(-687.644 -386.793)" opacity="0.1"/>
    <g id="Groupe_10442" data-name="Groupe 10442" transform="translate(215.678 109.143)" opacity="0.05">
      <path id="Tracé_10061" data-name="Tracé 10061" d="M929.231,516.1c1.828-3.809,4.648-10.17,4.305-12.489A5.794,5.794,0,0,0,931,499.336a1.051,1.051,0,0,0-.443-.148l-.974-.1a.971.971,0,0,1,.292.119,5.807,5.807,0,0,1,2.538,4.281c.343,2.317-2.478,8.681-4.3,12.489a7.471,7.471,0,0,0-.487,5.208c1.139,4.137,1.769,12.26,1.769,12.26l-6.069,3.794.153.73,7.057-4.4s-.63-8.126-1.767-12.26A7.475,7.475,0,0,1,929.231,516.1Z" transform="translate(-923.04 -497.068)"/>
      <path id="Tracé_10062" data-name="Tracé 10062" d="M892.706,462.112l1.09.109-4.741-1.871-.426.153Z" transform="translate(-888.63 -460.35)"/>
    </g>
    <path id="Tracé_10063" data-name="Tracé 10063" d="M887.45,585.9s3.894-2.139,5.162-1.635,5.916-.127,5.916-.127" transform="translate(-680.2 -452.191)" opacity="0.05"/>
    <path id="Tracé_10064" data-name="Tracé 10064" d="M902.531,471.418c-.144-1.263.44-1.071.44-1.071s-6.8-1.258-5.162,1.888A7.209,7.209,0,0,1,898.5,475h.066C900.456,475.006,901.558,472.893,902.531,471.418Z" transform="translate(-687.841 -365.361)" opacity="0.05"/>
    <circle id="Ellipse_3150" data-name="Ellipse 3150" cx="5.412" cy="5.412" r="5.412" transform="translate(205.307 98.387)" fill="#ae6e79"/>
    <path id="Tracé_10065" data-name="Tracé 10065" d="M875.85,443.65a7.545,7.545,0,0,0,.791-3.429,3.888,3.888,0,0,0-1.572-3.044c-.506-.341-1.1-.523-1.633-.835-.411-.243-.774-.562-1.166-.835a6.6,6.6,0,0,0-6.59-.487,30.3,30.3,0,0,0-2.777,1.84,4.652,4.652,0,0,1-3.139.879c-.19.523.275,1.039.7,1.4a4.738,4.738,0,0,0,2.784,1.377,2.914,2.914,0,0,1,1.217.092,1.746,1.746,0,0,1,.618.574,11.335,11.335,0,0,1,1.285,2.178,1.806,1.806,0,0,0,.574.847c.487.312,1.117.051,1.7.029a3.506,3.506,0,0,1,2.365,1.132,7.221,7.221,0,0,0,2.132,1.613c.625.243,1.876.229,2.19-.518.119-.282-.112-.886-.063-1.231a5.958,5.958,0,0,1,.579-1.582Z" transform="translate(-659.213 -338.222)" opacity="0.1"/>
    <path id="Tracé_10066" data-name="Tracé 10066" d="M876.317,443.12a7.511,7.511,0,0,0,.791-3.426,3.893,3.893,0,0,0-1.57-3.044c-.509-.343-1.107-.526-1.633-.837-.411-.243-.774-.56-1.166-.835a6.6,6.6,0,0,0-6.59-.487,30.268,30.268,0,0,0-2.777,1.837,4.64,4.64,0,0,1-3.139.879c-.19.526.273,1.042.7,1.4a4.755,4.755,0,0,0,2.784,1.38,2.874,2.874,0,0,1,1.217.092,1.7,1.7,0,0,1,.618.574,11.2,11.2,0,0,1,1.282,2.176,1.81,1.81,0,0,0,.577.847c.487.312,1.117.051,1.7.029a3.509,3.509,0,0,1,2.363,1.134,7.162,7.162,0,0,0,2.134,1.611c.625.243,1.876.229,2.19-.518.122-.282-.109-.886-.061-1.231A5.95,5.95,0,0,1,876.317,443.12Z" transform="translate(-659.568 -337.818)" fill="#42383c"/>
    <path id="Tracé_10067" data-name="Tracé 10067" d="M420.006,516.811a2.509,2.509,0,0,1-1.611.569l-108.726-.462a3.346,3.346,0,0,1-.747-2.548l10.742-87.894,6.736-.073a2.545,2.545,0,0,1,2.482,1.879l1.258,4.643a2.546,2.546,0,0,0,2.516,1.879l26.884-.645a2.546,2.546,0,0,0,2.485-2.546v-3.076a2.546,2.546,0,0,1,2.517-2.546l37.253-.4a2.546,2.546,0,0,1,2.524,2.066l16.475,86.15.107.555A2.531,2.531,0,0,1,420.006,516.811Z" transform="translate(-242.176 -333.635)" opacity="0.1"/>
    <path id="Tracé_10068" data-name="Tracé 10068" d="M331.721,430.6l-37.254.4a2.546,2.546,0,0,0-2.519,2.543v3.078a2.546,2.546,0,0,1-2.482,2.543l-26.882.645a2.543,2.543,0,0,1-2.519-1.879l-1.263-4.641a2.543,2.543,0,0,0-2.485-1.879l-35.908.387a2.543,2.543,0,0,0-2.482,2.969l14.446,85.02a2.545,2.545,0,0,0,2.5,2.12l113.44.487a2.546,2.546,0,0,0,2.509-3.023l-16.578-86.707A2.543,2.543,0,0,0,331.721,430.6Z" transform="translate(-173.251 -337.425)" fill="#e6e8ee"/>
    <path id="Tracé_10069" data-name="Tracé 10069" d="M866.014,163.186l-.195,2.166.141,3.83-.411,6.461s-.058,2.83-1.657,4.157l-4.081,6.267-.024.012-1.536.75-2.344.243-1.217-2.947.806-3.237.448-.6.124-.136a14.087,14.087,0,0,1,3.857-3.086,2.111,2.111,0,0,0,.82-1.874c-.175-1.144,1.343-7.223,1.343-7.223s.973-4.02.762-4.412-.039-9.291,3.319-9.428S866.014,163.186,866.014,163.186Z" transform="translate(-655.395 -124.02)" fill="#f6bac2"/>
    <ellipse id="Ellipse_3151" data-name="Ellipse 3151" cx="3.945" cy="0.543" rx="3.945" ry="0.543" transform="translate(32.907 165.813)" fill="#6c63ff" opacity="0.1"/>
    <ellipse id="Ellipse_3152" data-name="Ellipse 3152" cx="3.945" cy="0.543" rx="3.945" ry="0.543" transform="translate(17.797 167.343)" fill="#6c63ff" opacity="0.1"/>
    <ellipse id="Ellipse_3153" data-name="Ellipse 3153" cx="3.945" cy="0.543" rx="3.945" ry="0.543" transform="translate(0 165.27)" fill="#6c63ff" opacity="0.1"/>
    <ellipse id="Ellipse_3154" data-name="Ellipse 3154" cx="2.804" cy="0.385" rx="2.804" ry="0.385" transform="translate(24.986 171.865)" fill="#6c63ff" opacity="0.1"/>
    <ellipse id="Ellipse_3155" data-name="Ellipse 3155" cx="2.804" cy="0.385" rx="2.804" ry="0.385" transform="translate(9.304 171.48)" fill="#6c63ff" opacity="0.1"/>
    <path id="Tracé_10070" data-name="Tracé 10070" d="M70.3,643.984s5.532-18.135-.866-25.4c-4.787-5.434-10.221-4.784-12.655-4.113a4.5,4.5,0,0,0-2.9,2.412c-.852,1.835-.7,4.814,5.308,8.291C69.244,631,69.869,638.981,69.869,638.981Z" transform="translate(-48.648 -475.438)" fill="#3c82ff"/>
    <path id="Tracé_10071" data-name="Tracé 10071" d="M70.54,626.41s16.305,5.111,12.655,26.94" transform="translate(-61.536 -484.817)" fill="none" stroke="#565987" stroke-miterlimit="10" stroke-width="1"/>
    <path id="Tracé_10072" data-name="Tracé 10072" d="M104.483,633.92s-2.246,1.514-1.531,3.789" transform="translate(-85.954 -490.14)" fill="none" stroke="#565987" stroke-miterlimit="10" stroke-width="1"/>
    <path id="Tracé_10073" data-name="Tracé 10073" d="M77.26,636.793a2.831,2.831,0,0,1,3.044-.625" transform="translate(-66.62 -491.63)" fill="none" stroke="#565987" stroke-miterlimit="10" stroke-width="1"/>
    <path id="Tracé_10074" data-name="Tracé 10074" d="M103.75,666.891s2.412-1.217,3.035.309" transform="translate(-86.664 -514.857)" fill="none" stroke="#565987" stroke-miterlimit="10" stroke-width="1"/>
    <path id="Tracé_10075" data-name="Tracé 10075" d="M122.532,678.763s-1.811-.144-1.842.73" transform="translate(-99.481 -524.243)" fill="none" stroke="#565987" stroke-miterlimit="10" stroke-width="1"/>
    <path id="Tracé_10076" data-name="Tracé 10076" d="M93.054,697.584s-6.481-13.18-8.26-12.9c-.844.139-1.234.973-1.411,1.806a5.3,5.3,0,0,0,.353,3.208A14.2,14.2,0,0,0,93.054,697.584Z" transform="translate(-71.173 -528.967)" fill="#3c82ff"/>
    <path id="Tracé_10077" data-name="Tracé 10077" d="M89.71,695s6.8,9.861,8.114,10.294" transform="translate(-76.04 -536.782)" fill="none" stroke="#565987" stroke-miterlimit="10" stroke-width="1"/>
    <line id="Ligne_5" data-name="Ligne 5" x2="1.587" transform="translate(13.044 159.904)" fill="none" stroke="#565987" stroke-miterlimit="10" stroke-width="1"/>
    <line id="Ligne_6" data-name="Ligne 6" x2="2.49" y2="0.107" transform="translate(14.945 162.666)" fill="none" stroke="#565987" stroke-miterlimit="10" stroke-width="1"/>
    <line id="Ligne_7" data-name="Ligne 7" x1="0.27" y2="1.297" transform="translate(16.191 159.78)" fill="none" stroke="#565987" stroke-miterlimit="10" stroke-width="1"/>
    <line id="Ligne_8" data-name="Ligne 8" x1="0.049" y2="1.178" transform="translate(19.058 163.724)" fill="none" stroke="#565987" stroke-miterlimit="10" stroke-width="1"/>
    <path id="Tracé_10078" data-name="Tracé 10078" d="M122.66,697.584s6.478-13.18,8.257-12.9c.847.139,1.236.973,1.411,1.806a5.3,5.3,0,0,1-.353,3.208A14.209,14.209,0,0,1,122.66,697.584Z" transform="translate(-100.972 -528.967)" fill="#3c82ff"/>
    <path id="Tracé_10079" data-name="Tracé 10079" d="M131.166,695s-6.814,9.861-8.116,10.294" transform="translate(-101.267 -536.782)" fill="none" stroke="#565987" stroke-miterlimit="10" stroke-width="1"/>
    <line id="Ligne_9" data-name="Ligne 9" x1="1.587" transform="translate(28.938 159.904)" fill="none" stroke="#565987" stroke-miterlimit="10" stroke-width="1"/>
    <line id="Ligne_10" data-name="Ligne 10" x1="2.49" y2="0.107" transform="translate(26.134 162.666)" fill="none" stroke="#565987" stroke-miterlimit="10" stroke-width="1"/>
    <line id="Ligne_11" data-name="Ligne 11" x2="0.27" y2="1.297" transform="translate(27.108 159.78)" fill="none" stroke="#565987" stroke-miterlimit="10" stroke-width="1"/>
    <line id="Ligne_12" data-name="Ligne 12" x2="0.049" y2="1.178" transform="translate(24.463 163.724)" fill="none" stroke="#565987" stroke-miterlimit="10" stroke-width="1"/>
    <path id="Tracé_10080" data-name="Tracé 10080" d="M75.743,744.783a1.12,1.12,0,0,1-.367-.557.487.487,0,0,1,.258-.567.715.715,0,0,1,.681.243.871.871,0,0,0,.66.309,1.008,1.008,0,0,1-.311-.944.385.385,0,0,1,.085-.192c.131-.141.37-.08.528.032a2,2,0,0,1,.642,1.643,3.141,3.141,0,0,0,0-.677.694.694,0,0,1,.273-.591.759.759,0,0,1,.387-.092.8.8,0,0,1,.63.18.625.625,0,0,1-.024.771,2.483,2.483,0,0,1-.652.521,1.461,1.461,0,0,0-.465.445.328.328,0,0,0-.034.078H76.617A3.928,3.928,0,0,1,75.743,744.783Z" transform="translate(-65.182 -573.794)" fill="#3c82ff"/>
    <path id="Tracé_10081" data-name="Tracé 10081" d="M177.193,723.008a1.1,1.1,0,0,1-.367-.555.487.487,0,0,1,.256-.567.715.715,0,0,1,.681.243.9.9,0,0,0,.664.319,1.008,1.008,0,0,1-.314-.942.388.388,0,0,1,.088-.192c.131-.141.37-.08.528.029a1.969,1.969,0,0,1,.642,1.645,3.163,3.163,0,0,0,0-.679.7.7,0,0,1,.243-.6.776.776,0,0,1,.387-.09.813.813,0,0,1,.63.178.625.625,0,0,1-.027.774,2.433,2.433,0,0,1-.65.521,1.444,1.444,0,0,0-.465.443.4.4,0,0,0-.034.08h-1.385A3.9,3.9,0,0,1,177.193,723.008Z" transform="translate(-141.942 -557.329)" fill="#3c82ff"/>
    <path id="Tracé_10082" data-name="Tracé 10082" d="M143.376,744.821a1.141,1.141,0,0,1-.37-.557.487.487,0,0,1,.258-.567.715.715,0,0,1,.681.243.9.9,0,0,0,.664.321,1.015,1.015,0,0,1-.314-.944.387.387,0,0,1,.088-.192c.131-.141.37-.08.528.032a1.969,1.969,0,0,1,.642,1.643,3.142,3.142,0,0,0,0-.677.7.7,0,0,1,.256-.6.752.752,0,0,1,.387-.092.805.805,0,0,1,.63.18.623.623,0,0,1-.027.771,2.472,2.472,0,0,1-.65.521,1.46,1.46,0,0,0-.465.445.325.325,0,0,0-.034.078H144.24A3.972,3.972,0,0,1,143.376,744.821Z" transform="translate(-116.353 -573.832)" fill="#3c82ff"/>
    <path id="Tracé_10083" data-name="Tracé 10083" d="M45,706.25s-.528.691.243,1.735,1.409,1.925,1.151,2.575c0,0-1.166-1.947-2.115-1.964S43.953,707.406,45,706.25Z" transform="translate(-41.31 -545.993)" fill="#3c82ff"/>
    <path id="Tracé_10084" data-name="Tracé 10084" d="M45,706.25a.871.871,0,0,0-.107.217c-.925,1.088-1.419,2.1-.528,2.129.827.024,1.823,1.5,2.059,1.879a.87.87,0,0,1-.027.085s-1.166-1.947-2.115-1.964S43.958,707.406,45,706.25Z" transform="translate(-41.315 -545.993)" opacity="0.1"/>
    <path id="Tracé_10085" data-name="Tracé 10085" d="M44.66,709.385c0,.243.027.44.061.44s.061-.2.061-.44-.034-.129-.068-.129S44.66,709.142,44.66,709.385Z" transform="translate(-41.954 -548.248)" fill="#ffd037"/>
    <path id="Tracé_10086" data-name="Tracé 10086" d="M42.864,710.551c.214.117.4.185.416.156s-.144-.146-.358-.263-.129-.032-.146,0S42.65,710.435,42.864,710.551Z" transform="translate(-40.496 -549.122)" fill="#ffd037"/>
    <path id="Tracé_10087" data-name="Tracé 10087" d="M55.643,706.25s.531.691-.243,1.735-1.409,1.925-1.151,2.575c0,0,1.166-1.947,2.115-1.964S56.687,707.406,55.643,706.25Z" transform="translate(-49.165 -545.993)" fill="#3c82ff"/>
    <path id="Tracé_10088" data-name="Tracé 10088" d="M55.734,706.25a.922.922,0,0,1,.11.217c.925,1.088,1.419,2.1.528,2.129-.827.024-1.823,1.5-2.061,1.879a.5.5,0,0,0,.029.085s1.166-1.947,2.115-1.964S56.778,707.406,55.734,706.25Z" transform="translate(-49.255 -545.993)" opacity="0.1"/>
    <path id="Tracé_10089" data-name="Tracé 10089" d="M63.822,709.385c0,.243-.027.44-.061.44s-.061-.2-.061-.44.034-.129.068-.129S63.822,709.142,63.822,709.385Z" transform="translate(-56.36 -548.248)" fill="#ffd037"/>
    <path id="Tracé_10090" data-name="Tracé 10090" d="M64.293,710.551c-.214.117-.4.185-.416.156s.144-.146.358-.263.129-.032.144,0S64.5,710.435,64.293,710.551Z" transform="translate(-56.494 -549.122)" fill="#ffd037"/>
    <path id="Tracé_10091" data-name="Tracé 10091" d="M46.413,721.108a5.43,5.43,0,0,1-1.923-.363c-.445-.316-2.273-.7-2.385-.187s-2.219,2.531-.552,2.543a14.211,14.211,0,0,0,4.322-.531C46.32,722.3,46.413,721.108,46.413,721.108Z" transform="translate(-39.119 -556.631)" fill="#a8a8a8"/>
    <path id="Tracé_10092" data-name="Tracé 10092" d="M41.527,725.4a14.049,14.049,0,0,0,4.322-.531c.338-.2.472-.944.518-1.287h.049s-.092,1.192-.538,1.46a14.2,14.2,0,0,1-4.322.531c-.487,0-.647-.175-.638-.428C40.984,725.3,41.182,725.386,41.527,725.4Z" transform="translate(-39.123 -559.106)" opacity="0.2"/>
    <circle id="Ellipse_3156" data-name="Ellipse 3156" cx="5.264" cy="5.264" r="5.264" transform="translate(2.996 25.574)" fill="#3c82ff"/>
    <circle id="Ellipse_3157" data-name="Ellipse 3157" cx="5.264" cy="5.264" r="5.264" transform="translate(262.402 78.168)" fill="#3c82ff"/>
    <circle id="Ellipse_3158" data-name="Ellipse 3158" cx="5.264" cy="5.264" r="5.264" transform="translate(161.057 8.858)" fill="#3c82ff"/>
    <circle id="Ellipse_3159" data-name="Ellipse 3159" cx="8.822" cy="8.822" r="8.822" transform="translate(9.966 49.903)" fill="#3c82ff"/>
    <path id="Tracé_10093" data-name="Tracé 10093" d="M462.443,607.756l-.311-.312a.333.333,0,0,1,0-.487l2.733-2.735a.334.334,0,0,1,.487,0l2.733,2.733a.338.338,0,0,1,0,.487l-.311.312a.338.338,0,0,1-.487,0l-1.616-1.7v4.042a.336.336,0,0,1-.336.338h-.45a.338.338,0,0,1-.338-.338v-4.037l-1.616,1.7a.338.338,0,0,1-.487,0Z" transform="translate(-358.024 -467.474)" fill="#f6f7f9"/>
    <path id="Tracé_10094" data-name="Tracé 10094" d="M455.156,592.07a5.546,5.546,0,1,1-5.546,5.546,5.546,5.546,0,0,1,5.546-5.546m0-.73a6.276,6.276,0,1,0,6.276,6.276A6.276,6.276,0,0,0,455.156,591.34Z" transform="translate(-348.075 -457.836)" fill="#f6f7f9"/>
  </g>
</svg>
